<svg width="586" height="676" viewBox="0 0 586 676" fill="none" xmlns="http://www.w3.org/2000/svg">
<path d="M520.831 290.805C452.121 269.945 392.881 240.465 325.761 158.655C258.641 76.8551 78.251 102.025 25.811 224.725C-26.629 347.435 11.131 460.695 74.051 481.675C136.981 502.645 163.981 523.185 198.721 603.675C226.591 668.235 381.531 699.335 429.541 637.065C517.351 523.185 519.781 567.675 561.731 482.725C603.681 397.775 591.401 312.225 520.831 290.795V290.805Z" fill="#EAF0F5"/>
<path d="M478.511 172.975C431.821 120.215 414.151 104.445 362.551 115.585C310.951 126.725 394.801 216.275 480.281 260.195C565.751 304.115 535.671 237.565 478.521 172.985L478.511 172.975Z" fill="#EAF0F5"/>
<path d="M570.071 670.955H16.8008V675.045H570.071V670.955Z" fill="#D8E4F0"/>
<mask id="mask0_922_11735" style="mask-type:luminance" maskUnits="userSpaceOnUse" x="1" y="111" width="585" height="560">
<path d="M520.831 290.805C452.121 269.945 392.881 240.465 325.761 158.655C258.641 76.8551 78.251 102.025 25.811 224.725C-26.629 347.435 11.131 460.695 74.051 481.675C136.981 502.645 163.981 523.185 198.721 603.675C226.591 668.235 381.531 699.335 429.541 637.065C517.351 523.185 519.781 567.675 561.731 482.725C603.681 397.775 591.401 312.225 520.831 290.795V290.805Z" fill="white"/>
</mask>
<g mask="url(#mask0_922_11735)">
<path d="M85.4008 274.575V252.605H121.851V147.575H131.901V252.605H171.161V274.575H192.191V714.935H40.5308V274.575H85.4008Z" fill="#D8E4F0"/>
<path d="M61.5608 274.575H40.5308V670.695H61.5608V274.575Z" fill="#C3D6E8"/>
<path d="M268.021 379.475H116.361V714.935H268.021V379.475Z" fill="#D8E4F0"/>
<path d="M137.391 379.475H116.361V714.935H137.391V379.475Z" fill="#C3D6E8"/>
<path d="M246.861 393.765H225.101V402.795H246.861V393.765Z" fill="#C3D6E8"/>
<path d="M210.221 393.765H188.461V402.795H210.221V393.765Z" fill="#C3D6E8"/>
<path d="M246.861 426.655H225.101V435.685H246.861V426.655Z" fill="#C3D6E8"/>
<path d="M210.221 426.655H188.461V435.685H210.221V426.655Z" fill="#C3D6E8"/>
<path d="M173.581 426.655H151.821V435.685H173.581V426.655Z" fill="#C3D6E8"/>
<path d="M246.861 459.535H225.101V468.565H246.861V459.535Z" fill="#C3D6E8"/>
<path d="M173.581 459.535H151.821V468.565H173.581V459.535Z" fill="#C3D6E8"/>
<path d="M210.221 475.985H188.461V485.015H210.221V475.985Z" fill="#C3D6E8"/>
<path d="M246.861 492.425H225.101V501.455H246.861V492.425Z" fill="#C3D6E8"/>
<path d="M210.221 508.865H188.461V517.905H210.221V508.865Z" fill="#C3D6E8"/>
<path d="M246.861 525.305H225.101V534.335H246.861V525.305Z" fill="#C3D6E8"/>
<path d="M173.581 525.305H151.821V534.335H173.581V525.305Z" fill="#C3D6E8"/>
<path d="M246.861 555.705H225.101V564.735H246.861V555.705Z" fill="#C3D6E8"/>
<path d="M210.221 555.705H188.461V564.735H210.221V555.705Z" fill="#C3D6E8"/>
<path d="M246.861 588.585H225.101V597.615H246.861V588.585Z" fill="#C3D6E8"/>
<path d="M210.221 588.585H188.461V597.615H210.221V588.585Z" fill="#C3D6E8"/>
<path d="M173.581 588.585H151.821V597.615H173.581V588.585Z" fill="#C3D6E8"/>
<path d="M246.861 621.475H225.101V630.505H246.861V621.475Z" fill="#C3D6E8"/>
<path d="M173.581 621.475H151.821V630.505H173.581V621.475Z" fill="#C3D6E8"/>
<path d="M210.221 637.915H188.461V646.945H210.221V637.915Z" fill="#C3D6E8"/>
<path d="M173.581 637.915H151.821V646.945H173.581V637.915Z" fill="#C3D6E8"/>
<path d="M246.861 654.355H225.101V663.385H246.861V654.355Z" fill="#C3D6E8"/>
<path d="M210.221 670.805H188.461V679.835H210.221V670.805Z" fill="#C3D6E8"/>
<path d="M630.88 379.475H479.23V714.945H630.88V379.475Z" fill="#D8E4F0"/>
<path d="M500.26 379.475H479.23V714.945H500.26V379.475Z" fill="#C3D6E8"/>
<path d="M467.281 219.915H263.801V714.945H467.281V219.915Z" fill="#D8E4F0"/>
<path d="M284.831 219.915H263.801V714.945H284.831V219.915Z" fill="#C3D6E8"/>
<path d="M445.841 243.625H414.061V256.815H445.841V243.625Z" fill="#C3D6E8"/>
<path d="M392.341 243.625H360.561V256.815H392.341V243.625Z" fill="#C3D6E8"/>
<path d="M445.841 291.645H414.061V304.835H445.841V291.645Z" fill="#C3D6E8"/>
<path d="M392.341 291.645H360.561V304.835H392.341V291.645Z" fill="#C3D6E8"/>
<path d="M338.831 291.645H307.051V304.835H338.831V291.645Z" fill="#C3D6E8"/>
<path d="M445.841 339.665H414.061V352.855H445.841V339.665Z" fill="#C3D6E8"/>
<path d="M338.831 339.665H307.051V352.855H338.831V339.665Z" fill="#C3D6E8"/>
<path d="M392.341 363.685H360.561V376.875H392.341V363.685Z" fill="#C3D6E8"/>
<path d="M445.841 387.695H414.061V400.885H445.841V387.695Z" fill="#C3D6E8"/>
<path d="M392.341 411.705H360.561V424.895H392.341V411.705Z" fill="#C3D6E8"/>
<path d="M445.841 435.715H414.061V448.905H445.841V435.715Z" fill="#C3D6E8"/>
<path d="M338.831 435.715H307.051V448.905H338.831V435.715Z" fill="#C3D6E8"/>
<path d="M445.841 480.095H414.061V493.285H445.841V480.095Z" fill="#C3D6E8"/>
<path d="M392.341 480.095H360.561V493.285H392.341V480.095Z" fill="#C3D6E8"/>
<path d="M445.841 528.115H414.061V541.305H445.841V528.115Z" fill="#C3D6E8"/>
<path d="M392.341 528.115H360.561V541.305H392.341V528.115Z" fill="#C3D6E8"/>
<path d="M338.831 528.115H307.051V541.305H338.831V528.115Z" fill="#C3D6E8"/>
<path d="M445.841 576.135H414.061V589.325H445.841V576.135Z" fill="#C3D6E8"/>
<path d="M338.831 576.135H307.051V589.325H338.831V576.135Z" fill="#C3D6E8"/>
<path d="M392.341 600.145H360.561V613.335H392.341V600.145Z" fill="#C3D6E8"/>
<path d="M338.831 600.145H307.051V613.335H338.831V600.145Z" fill="#C3D6E8"/>
<path d="M445.841 624.165H414.061V637.355H445.841V624.165Z" fill="#C3D6E8"/>
<path d="M392.341 648.175H360.561V661.365H392.341V648.175Z" fill="#C3D6E8"/>
<path d="M783.141 256.815H583.711V714.945H783.141V256.815Z" fill="#D8E4F0"/>
<path d="M604.321 256.815H583.711V714.945H604.321V256.815Z" fill="#C3D6E8"/>
<path d="M67.6407 402.465H-60.7993V714.935H67.6407V402.465Z" fill="#D8E4F0"/>
<path d="M54.1108 417.435H34.0508V425.755H54.1108V417.435Z" fill="#C3D6E8"/>
<path d="M20.3408 417.435H0.280762V425.755H20.3408V417.435Z" fill="#C3D6E8"/>
<path d="M54.1108 447.745H34.0508V456.075H54.1108V447.745Z" fill="#C3D6E8"/>
<path d="M20.3408 447.745H0.280762V456.075H20.3408V447.745Z" fill="#C3D6E8"/>
<path d="M54.1108 478.055H34.0508V486.375H54.1108V478.055Z" fill="#C3D6E8"/>
<path d="M20.3408 493.215H0.280762V501.535H20.3408V493.215Z" fill="#C3D6E8"/>
<path d="M54.1108 508.375H34.0508V516.695H54.1108V508.375Z" fill="#C3D6E8"/>
<path d="M20.3408 523.525H0.280762V531.855H20.3408V523.525Z" fill="#C3D6E8"/>
<path d="M54.1108 538.685H34.0508V547.015H54.1108V538.685Z" fill="#C3D6E8"/>
<path d="M54.1108 566.695H34.0508V575.015H54.1108V566.695Z" fill="#C3D6E8"/>
<path d="M20.3408 566.695H0.280762V575.015H20.3408V566.695Z" fill="#C3D6E8"/>
<path d="M54.1108 597.005H34.0508V605.335H54.1108V597.005Z" fill="#C3D6E8"/>
<path d="M20.3408 597.005H0.280762V605.335H20.3408V597.005Z" fill="#C3D6E8"/>
<path d="M54.1108 627.325H34.0508V635.645H54.1108V627.325Z" fill="#C3D6E8"/>
<path d="M20.3408 642.485H0.280762V650.805H20.3408V642.485Z" fill="#C3D6E8"/>
<path d="M54.1108 657.635H34.0508V665.965H54.1108V657.635Z" fill="#C3D6E8"/>
<path opacity="0.35" d="M399.281 68.0251H-145.049V688.665H399.281V68.0251Z" fill="white"/>
<path opacity="0.5" d="M46.1206 677.455H3.87061L230.341 75.1252H272.591L46.1206 677.455Z" fill="white"/>
<path opacity="0.5" d="M-28.4791 677.455H-49.5991L176.871 75.1252H197.991L-28.4791 677.455Z" fill="white"/>
<path opacity="0.5" d="M223.741 677.455H202.621L396.781 139.795V183.115L223.741 677.455Z" fill="white"/>
<path opacity="0.35" d="M950.261 55.7451H405.921V676.385H950.261V55.7451Z" fill="white"/>
<path opacity="0.5" d="M495.941 677.455H453.691L680.161 75.125H722.411L495.941 677.455Z" fill="white"/>
<path opacity="0.5" d="M421.341 677.455H400.221L626.691 75.125H647.811L421.341 677.455Z" fill="white"/>
<path d="M972.951 179.975V172.875H953.391V60.9351H409.001H-147.239V75.1351H-135.379V80.1451H215.661V172.875H-147.239V179.975H215.651V362.235H-147.239V369.335H215.651V551.595H-147.239V558.695H215.651V677.455H-135.269V681.565H-147.239V697.995H953.391V696.675V558.695H972.951V551.595H953.391V369.335H972.951V362.235H953.391V179.975H972.951ZM409.061 369.335H578.601V551.595H409.061V369.335ZM409.061 362.235V179.975H578.601V362.235H409.061ZM409.061 172.875V80.1451H578.601V172.875H409.061ZM409.061 558.695H578.601V677.455H409.121V681.565H409.061V558.695ZM590.501 677.455V558.695H760.041V677.455H590.501ZM590.501 551.595V369.335H760.041V551.595H590.501ZM590.501 362.235V179.975H760.041V362.235H590.501ZM590.501 172.875V80.1451H760.041V172.875H590.501ZM771.951 80.1451H941.491V172.875H771.951V80.1451ZM227.561 80.1451H397.101V172.875H227.561V80.1451ZM227.561 179.975H397.101V362.235H227.561V179.975ZM227.561 369.335H397.101V551.595H227.561V369.335ZM227.561 558.695H397.101V681.565H397.041V677.455H227.571V558.695H227.561ZM941.491 681.565H941.431V677.455H771.951V558.695H941.491V681.565ZM941.491 551.595H771.951V369.335H941.491V551.595ZM941.491 362.235H771.951V179.975H941.491V362.235Z" fill="#EAF0F5"/>
</g>
<path d="M376.761 163.965C376.141 163.965 375.641 163.465 375.641 162.845V150.915C375.641 150.295 376.141 149.795 376.761 149.795C377.381 149.795 377.881 150.295 377.881 150.915V162.845C377.881 163.465 377.381 163.965 376.761 163.965ZM372.991 141.155C372.711 141.155 372.441 141.055 372.221 140.855C370.211 138.965 367.581 137.925 364.821 137.925H361.891C361.271 137.925 360.771 137.425 360.771 136.805C360.771 136.185 361.271 135.685 361.891 135.685H364.821C368.151 135.685 371.321 136.945 373.751 139.225C374.201 139.645 374.221 140.355 373.801 140.805C373.581 141.035 373.281 141.155 372.981 141.155H372.991ZM349.951 137.915H338.021C337.401 137.915 336.901 137.415 336.901 136.795C336.901 136.175 337.401 135.675 338.021 135.675H349.951C350.571 135.675 351.071 136.175 351.071 136.795C351.071 137.415 350.571 137.915 349.951 137.915ZM326.091 137.915H314.161C313.541 137.915 313.041 137.415 313.041 136.795C313.041 136.175 313.541 135.675 314.161 135.675H326.091C326.711 135.675 327.211 136.175 327.211 136.795C327.211 137.415 326.711 137.915 326.091 137.915ZM302.221 137.915H290.291C289.671 137.915 289.171 137.415 289.171 136.795C289.171 136.175 289.671 135.675 290.291 135.675H302.221C302.841 135.675 303.341 136.175 303.341 136.795C303.341 137.415 302.841 137.915 302.221 137.915ZM278.351 137.915H266.421C265.801 137.915 265.301 137.415 265.301 136.795C265.301 136.175 265.801 135.675 266.421 135.675H278.351C278.971 135.675 279.471 136.175 279.471 136.795C279.471 137.415 278.971 137.915 278.351 137.915ZM254.481 137.915H242.551C241.931 137.915 241.431 137.415 241.431 136.795C241.431 136.175 241.931 135.675 242.551 135.675H254.481C255.101 135.675 255.601 136.175 255.601 136.795C255.601 137.415 255.101 137.915 254.481 137.915ZM230.621 137.915H218.691C218.071 137.915 217.571 137.415 217.571 136.795C217.571 136.175 218.071 135.675 218.691 135.675H230.621C231.241 135.675 231.741 136.175 231.741 136.795C231.741 137.415 231.241 137.915 230.621 137.915ZM206.751 137.915H201.461C198.911 137.915 196.501 136.935 194.681 135.155C194.241 134.725 194.231 134.015 194.661 133.575C195.091 133.135 195.801 133.125 196.241 133.555C197.641 134.925 199.501 135.675 201.461 135.675H206.751C207.371 135.675 207.871 136.175 207.871 136.795C207.871 137.415 207.371 137.915 206.751 137.915ZM192.861 124.255C192.241 124.255 191.741 123.755 191.741 123.135V111.205C191.741 110.585 192.241 110.085 192.861 110.085C193.481 110.085 193.981 110.585 193.981 111.205V123.135C193.981 123.755 193.481 124.255 192.861 124.255Z" fill="#7896B3"/>
<path d="M133.481 153.555C132.861 153.555 132.361 153.055 132.361 152.435V146.465C132.361 145.845 132.861 145.345 133.481 145.345C134.101 145.345 134.601 145.845 134.601 146.465V152.435C134.601 153.055 134.101 153.555 133.481 153.555Z" fill="#7896B3"/>
<path d="M133.481 247.545C132.861 247.545 132.361 247.045 132.361 246.425V234.675C132.361 234.055 132.861 233.555 133.481 233.555C134.101 233.555 134.601 234.055 134.601 234.675V246.425C134.601 247.045 134.101 247.545 133.481 247.545ZM133.481 224.045C132.861 224.045 132.361 223.545 132.361 222.925V211.175C132.361 210.555 132.861 210.055 133.481 210.055C134.101 210.055 134.601 210.555 134.601 211.175V222.925C134.601 223.545 134.101 224.045 133.481 224.045ZM133.481 200.545C132.861 200.545 132.361 200.045 132.361 199.425V187.675C132.361 187.055 132.861 186.555 133.481 186.555C134.101 186.555 134.601 187.055 134.601 187.675V199.425C134.601 200.045 134.101 200.545 133.481 200.545ZM133.481 177.055C132.861 177.055 132.361 176.555 132.361 175.935V164.185C132.361 163.565 132.861 163.065 133.481 163.065C134.101 163.065 134.601 163.565 134.601 164.185V175.935C134.601 176.555 134.101 177.055 133.481 177.055Z" fill="#7896B3"/>
<path d="M133.481 265.265C132.861 265.265 132.361 264.765 132.361 264.145V258.175C132.361 257.555 132.861 257.055 133.481 257.055C134.101 257.055 134.601 257.555 134.601 258.175V264.145C134.601 264.765 134.101 265.265 133.481 265.265Z" fill="#7896B3"/>
<path d="M82.1711 670.955L84.161 670.915L81.321 609.435L79.3311 609.475L82.1711 670.955Z" fill="black"/>
<path d="M36.4009 605.905C36.4009 601.685 63.9109 601.355 72.3509 601.355C80.7909 601.355 108.291 601.685 108.291 605.905C108.291 610.125 80.7809 610.445 72.3509 610.445C63.9209 610.445 36.4009 610.115 36.4009 605.905ZM72.3509 603.345C53.8409 603.345 41.8109 604.735 38.8809 605.905C41.8109 607.075 53.8309 608.455 72.3509 608.455C90.8709 608.455 102.891 607.065 105.811 605.905C102.881 604.735 90.8609 603.345 72.3509 603.345Z" fill="black"/>
<path d="M106.301 573.885C107.991 578.095 108.931 582.685 108.931 587.505C108.931 607.715 92.551 624.085 72.351 624.085C52.151 624.085 35.771 607.705 35.771 587.505C35.771 582.685 36.711 578.095 38.401 573.885H106.301Z" fill="#2563EB"/>
<path d="M38.4009 573.885C38.4009 576.855 53.6009 579.265 72.3509 579.265C91.1009 579.265 106.301 576.855 106.301 573.885C106.301 570.915 91.1009 568.505 72.3509 568.505C53.6009 568.505 38.4009 570.915 38.4009 573.885Z" fill="#1D4ED8"/>
<path d="M41.7407 573.885C41.7407 576.075 55.4407 577.855 72.3507 577.855C89.2607 577.855 102.961 576.075 102.961 573.885C102.961 571.695 89.2507 569.905 72.3507 569.905C55.4507 569.905 41.7407 571.685 41.7407 573.885Z" fill="#596F83"/>
<path opacity="0.42" d="M41.7207 586.225C41.8007 583.485 46.0708 583.475 45.9908 586.225C45.7908 592.735 46.6408 599.215 51.3308 604.105C53.2308 606.085 50.2207 609.105 48.3207 607.125C42.8507 601.435 41.5008 593.875 41.7308 586.235L41.7207 586.225Z" fill="white"/>
<path d="M72.3509 610.445C80.7809 610.445 108.291 610.115 108.291 605.905H106.301C106.301 605.715 106.381 605.595 106.411 605.565C105.211 606.785 92.7009 608.465 72.3509 608.465C52.0009 608.465 39.4809 606.785 38.2809 605.565C38.3109 605.595 38.3909 605.715 38.3909 605.905H36.4009C36.4009 610.125 63.9109 610.445 72.3509 610.445Z" fill="black"/>
<path d="M113.421 670.915L115.401 670.785L107.811 606.425L105.821 606.565L113.421 670.915Z" fill="black"/>
<path d="M33.0308 670.925L39.3908 606.815L37.4008 606.675L31.0508 670.775L33.0308 670.925Z" fill="black"/>
<path d="M67.1008 670.935L68.3608 609.475L66.3708 609.435L65.1108 670.895L67.1008 670.935Z" fill="black"/>
<path d="M41.7407 573.885C41.7407 575.505 49.1007 576.885 59.7007 577.505C60.3207 577.535 60.9507 577.575 61.6107 577.595C62.5007 577.645 63.3907 577.685 64.3207 577.705C64.9207 577.735 65.5407 577.755 66.1707 577.775C67.5507 577.815 68.9707 577.835 70.4207 577.835C71.0607 577.855 71.6907 577.855 72.3307 577.855H72.3507C75.1807 577.855 77.9307 577.795 80.5307 577.705C81.1807 577.685 81.8407 577.645 82.4707 577.635C94.3907 577.095 102.951 575.635 102.951 573.895C102.951 572.315 95.8107 570.935 85.4707 570.295C84.8007 570.255 84.1307 570.225 83.4307 570.185C80.3407 570.025 77.0107 569.935 73.5407 569.915H71.6107C69.5007 569.915 67.4507 569.955 65.4707 570.005C64.8307 570.025 64.2307 570.065 63.6207 570.075C62.5907 570.115 61.5707 570.165 60.5707 570.225C59.9307 570.245 59.3007 570.295 58.6807 570.315C48.6307 570.985 41.7407 572.335 41.7407 573.895V573.885Z" fill="#2563EB"/>
<path d="M71.9011 538.295C70.5611 537.515 69.3411 536.365 68.3911 535.405C66.8511 533.845 64.4411 531.315 64.4711 528.935C64.4911 526.975 66.5311 526.545 67.8811 527.695C69.0811 528.725 69.6011 530.285 70.5511 531.505C71.7111 532.995 73.5911 534.195 75.5211 534.965C78.1611 531.205 78.5911 526.035 77.7111 521.515C76.6911 516.295 73.2411 508.855 68.0911 501.905C67.4411 503.745 66.4611 505.515 65.7111 506.755C64.7411 508.365 63.1811 511.435 61.3211 512.085C59.3511 512.785 58.9511 510.965 59.2511 509.485C59.2511 509.405 59.2611 509.335 59.3011 509.245C59.3311 509.115 59.3711 508.975 59.4211 508.855C59.4611 508.735 59.5511 508.655 59.6411 508.595C60.7211 506.515 61.9711 504.515 62.9111 502.365C63.6111 500.765 64.0411 499.125 64.4911 497.475C59.9811 492.395 54.5411 487.945 48.5111 485.385C49.7311 487.935 50.5811 490.815 51.3611 493.325C52.1611 495.905 54.2811 501.385 52.3111 503.915C51.7711 504.605 50.6611 505.045 49.8311 504.575C48.4611 503.805 48.6211 500.995 48.6011 499.725C48.5411 496.635 48.5311 493.975 47.5211 490.965C46.6511 488.355 45.2211 486.035 43.6711 483.795C39.8911 482.905 35.9411 482.785 31.8711 483.725C33.0611 484.785 33.9911 486.095 34.2411 487.625C34.4711 489.045 33.6011 492.335 31.7311 492.445C29.2711 492.595 29.1011 486.875 28.8011 484.635C26.5811 485.425 24.3311 486.545 22.0611 488.025C18.1811 490.565 15.2311 493.895 13.0011 497.625C13.0411 497.685 13.0811 497.765 13.0911 497.855C13.8911 504.105 21.8611 506.265 26.6111 508.675C28.0811 509.425 33.6111 512.005 32.9011 514.235C32.5211 515.415 30.5511 515.415 29.6211 515.245C27.2411 514.805 25.1111 512.905 23.2511 511.465C18.9811 508.145 14.7611 504.955 11.2311 500.945C7.33108 509.305 6.44109 518.925 6.58109 526.035C6.70109 525.985 6.85107 525.975 7.00107 526.035C9.72107 527.195 12.9511 527.705 15.8911 527.435C17.7811 527.265 19.7411 526.815 21.6411 527.095C23.2411 527.335 25.7511 529.285 23.9511 530.885C22.4111 532.255 18.9911 531.925 17.1111 531.675C13.3511 531.185 9.95107 529.985 6.66107 528.345C6.77107 530.425 6.96109 532.225 7.18109 533.575C8.27109 540.525 12.4611 546.875 18.3111 550.745C20.2511 552.035 22.3811 553.045 24.6011 553.795C28.8911 550.075 32.1511 545.965 34.0511 540.365C34.8111 538.125 36.4011 531.945 39.5911 532.165C41.0111 532.265 41.9911 533.995 42.2611 535.225C42.7211 537.315 41.4511 539.415 40.2911 541.045C38.6011 543.445 36.7411 545.695 35.0811 548.135C33.4811 550.495 31.8211 552.805 30.0711 555.065C34.1411 555.605 38.3211 555.295 42.2011 554.095C48.3211 552.195 54.7311 545.835 51.3511 539.285C57.9311 540.735 66.0211 541.715 71.8911 538.265L71.9011 538.295ZM17.8811 520.905C17.7811 520.935 17.7011 520.935 17.6011 520.945C17.4311 521.155 17.1011 521.265 16.8411 521.015C16.7511 520.935 16.6711 520.835 16.5911 520.745C15.9411 520.345 15.5311 519.485 15.3411 518.735C15.3011 518.565 15.3411 518.425 15.4111 518.325C15.3211 517.915 15.2611 517.515 15.2611 517.125C15.2511 516.165 15.7011 515.085 16.8411 515.285C18.1311 515.515 19.3811 516.835 19.5211 518.125C19.6411 519.235 19.0211 520.565 17.8811 520.915V520.905ZM57.8811 522.445C57.1911 523.295 56.0711 523.405 55.2411 522.665C54.3611 521.885 54.1411 520.585 54.4411 519.485C54.4911 519.295 54.6211 519.195 54.7611 519.155C54.7811 519.155 54.7811 519.135 54.8011 519.125C55.7711 518.715 57.1011 518.695 57.9411 519.415C58.8911 520.225 58.5911 521.565 57.8811 522.435V522.445Z" fill="#87A8C7"/>
<path d="M124.121 502.185C127.461 503.445 130.911 504.295 134.441 504.695C136.391 497.965 136.091 490.635 135.341 483.625C132.861 486.145 130.151 488.335 126.771 489.915C123.951 491.235 119.101 493.455 116.581 490.515C116.411 490.315 116.351 489.975 116.581 489.785C119.311 487.535 122.951 487.755 126.181 486.745C129.411 485.735 132.831 483.595 135.021 480.785C134.951 480.205 134.881 479.625 134.811 479.045C134.161 473.855 133.261 468.715 132.231 463.595C132.181 463.695 132.141 463.795 132.091 463.885C131.651 464.775 130.821 466.675 129.651 466.865C128.561 467.035 128.161 465.755 128.381 464.905C128.711 463.615 129.961 462.575 130.471 461.315C130.781 460.565 131.051 459.805 131.281 459.025C130.411 454.955 129.481 450.905 128.541 446.855C128.471 446.565 128.171 446.455 127.911 446.495C123.891 447.045 119.821 447.615 115.761 448.275C111.351 452.615 108.201 457.735 107.691 464.095C107.541 465.905 108.671 475.385 104.351 474.225C99.7909 472.995 101.941 464.475 102.821 461.635C104.221 457.145 106.531 453.155 109.281 449.435C100.081 451.245 91.0609 453.845 82.7909 458.255C79.6809 464.755 80.1109 471.495 84.1409 477.865C85.0209 479.255 90.1309 485.735 86.0009 486.445C82.5309 487.045 79.8109 480.225 79.2309 477.685C78.3609 473.895 78.8709 469.985 79.1309 466.155C79.2909 463.855 79.6909 461.685 80.4209 459.575C80.3209 459.635 80.2209 459.675 80.1309 459.735C73.9009 463.445 67.971 468.255 66.061 475.565C65.211 478.805 65.1109 482.145 65.4709 485.475C67.0809 487.815 68.7909 490.085 70.8009 492.105C72.8509 494.175 75.2309 495.105 77.6009 496.675C79.2909 497.795 82.181 501.325 79.681 503.135C77.671 504.595 73.9009 502.805 71.9709 502.005C71.1809 501.675 70.4209 501.325 69.6709 500.955C69.3609 520.745 86.6009 510.505 86.6009 510.595C86.4709 528.725 104.961 528.875 116.341 524.645C115.201 524.425 114.051 524.215 112.901 524.025C110.641 523.655 108.321 523.525 106.071 523.075C103.621 522.585 100.211 521.055 100.711 517.925C101.141 515.225 104.651 517.405 105.941 518.115C110.361 520.555 115.541 522.805 120.691 522.545C121.241 522.215 121.781 521.875 122.311 521.505C126.251 518.725 129.561 515.045 131.881 510.825C127.491 510.705 123.101 510.395 118.771 509.645C115.621 509.095 110.641 508.265 109.131 504.975C108.961 504.605 109.161 504.235 109.571 504.205C113.361 503.925 116.961 504.945 120.291 506.675C124.301 508.765 128.431 509.665 132.741 509.125C133.241 508.065 133.701 506.985 134.071 505.875C134.091 505.815 134.111 505.745 134.131 505.675C130.611 505.255 127.171 504.415 123.841 503.155C123.221 502.925 123.491 501.925 124.111 502.165L124.121 502.185ZM117.311 464.985C117.341 464.805 117.431 464.705 117.551 464.655C117.701 463.825 118.301 463.165 119.311 463.005C121.721 462.635 123.391 465.465 121.391 467.115C120.621 467.745 119.481 468.135 118.501 467.795C117.291 467.375 117.151 466.075 117.321 464.975L117.311 464.985ZM95.061 513.555C94.321 514.165 93.3509 514.285 92.5809 513.675C92.2709 513.425 92.411 513.075 92.681 512.915C92.681 512.235 92.931 511.515 93.371 511.055C94.031 510.355 95.181 510.535 95.681 511.345C96.151 512.115 95.7009 513.025 95.0709 513.545L95.061 513.555ZM97.1309 474.645C96.9409 475.855 96.3609 477.635 95.1609 478.225C93.7209 478.935 93.131 477.135 92.961 476.065C92.951 475.985 92.9609 475.905 92.9709 475.845C92.3409 474.665 92.0209 473.275 92.1709 472.105C92.4109 470.275 94.231 469.805 95.711 470.675C97.101 471.485 97.361 473.185 97.121 474.655L97.1309 474.645ZM110.751 493.865C110.141 494.575 109.051 494.665 108.231 494.305C107.131 493.825 106.691 492.675 106.841 491.535C106.901 491.115 107.341 490.965 107.631 491.095C108.291 490.255 109.431 490.075 110.241 490.845C111.001 491.575 111.511 492.975 110.751 493.875V493.865Z" fill="#7896B3"/>
<path d="M36.6908 579.545C37.6808 581.595 38.4208 583.735 38.8508 585.945C34.4908 587.515 29.6208 587.695 24.9408 587.575C26.4908 585.875 27.8108 584.055 28.6908 581.845C29.4308 579.995 30.6608 576.815 28.6008 575.365C28.4608 575.275 28.2309 575.255 28.1209 575.405C26.7609 577.245 27.0808 579.535 26.5708 581.625C26.0608 583.715 24.8008 585.995 23.0508 587.515C22.6608 587.505 22.2708 587.485 21.8908 587.465C18.4208 587.315 14.9708 587.005 11.5408 586.615C11.6008 586.575 11.6608 586.545 11.7208 586.515C12.2908 586.195 13.5108 585.575 13.5708 584.825C13.6308 584.125 12.7608 583.935 12.2108 584.115C11.3708 584.395 10.7408 585.235 9.94083 585.625C9.46083 585.855 8.96085 586.065 8.46085 586.255C5.72085 585.905 3.00085 585.525 0.270848 585.135C0.0708476 585.105 -0.00917191 584.925 0.000828088 584.755C0.170828 582.185 0.350855 579.585 0.590855 576.985C3.25085 573.975 6.49084 571.725 10.6708 571.075C11.8608 570.895 18.1908 571.125 17.2208 568.455C16.1908 565.635 10.6509 567.425 8.81086 568.125C5.91086 569.235 3.38085 570.895 1.05085 572.825C1.81085 566.915 3.09084 561.085 5.61084 555.625C9.76084 553.335 14.2508 553.265 18.6608 555.495C19.6208 555.975 24.1609 558.885 24.4309 556.235C24.6609 554.005 20.0108 552.635 18.3008 552.395C15.7508 552.035 13.1808 552.555 10.6608 552.915C9.14083 553.135 7.73085 553.485 6.37085 554.065C6.40085 553.995 6.43085 553.935 6.46085 553.865C8.62085 549.735 11.5108 545.745 16.2708 544.165C18.3808 543.465 20.5908 543.235 22.8008 543.295C24.4308 544.195 26.0108 545.155 27.4508 546.325C28.9208 547.515 29.6509 548.975 30.8109 550.395C31.6309 551.405 34.1108 553.055 35.1908 551.385C36.0608 550.035 34.6908 547.745 34.0708 546.565C33.8108 546.085 33.5508 545.615 33.2708 545.165C46.3608 543.975 40.4108 555.385 40.4708 555.385C52.4708 554.385 53.4608 566.075 51.2108 573.485C51.0108 572.775 50.8208 572.065 50.6408 571.345C50.2808 569.935 50.0909 568.475 49.6809 567.075C49.2409 565.555 48.0608 563.475 46.0108 563.945C44.2408 564.355 45.8608 566.465 46.3908 567.245C48.2208 569.915 49.9608 573.085 50.0308 576.355C49.8408 576.715 49.6408 577.075 49.4208 577.425C47.7708 580.055 45.4909 582.335 42.8109 584.015C42.5209 581.245 42.1009 578.485 41.4009 575.785C40.8909 573.825 40.0909 570.715 37.8409 569.925C37.5909 569.835 37.3508 569.985 37.3508 570.245C37.3508 572.655 38.1908 574.885 39.5008 576.895C41.0808 579.325 41.8708 581.895 41.7308 584.645C41.0508 585.015 40.3608 585.365 39.6408 585.645C39.6008 585.665 39.5508 585.685 39.5108 585.695C39.0608 583.495 38.3408 581.355 37.3508 579.315C37.1708 578.935 36.5209 579.155 36.7108 579.535L36.6908 579.545ZM11.7208 577.125C11.6008 577.155 11.5408 577.215 11.5108 577.295C10.9708 577.435 10.5608 577.845 10.5108 578.485C10.3808 580.025 12.3409 580.945 13.3409 579.585C13.7209 579.065 13.9209 578.325 13.6509 577.725C13.3109 576.985 12.4508 576.955 11.7308 577.115L11.7208 577.125ZM42.8109 560.595C43.1809 560.095 43.2108 559.475 42.7708 559.015C42.5908 558.825 42.3608 558.935 42.2708 559.115C41.8208 559.145 41.3508 559.345 41.0708 559.645C40.6408 560.105 40.8108 560.815 41.3808 561.095C41.9108 561.355 42.4908 561.025 42.8008 560.595H42.8109ZM17.1509 563.875C17.9409 563.695 19.0908 563.235 19.4208 562.445C19.8208 561.495 18.6008 561.215 17.8808 561.165C17.8208 561.165 17.7808 561.165 17.7308 561.185C16.9208 560.855 15.9808 560.715 15.2208 560.875C14.0208 561.115 13.7908 562.295 14.4408 563.185C15.0408 564.025 16.1808 564.095 17.1408 563.875H17.1509ZM30.5308 571.515C30.9708 571.095 30.9708 570.405 30.7008 569.895C30.3308 569.225 29.5408 569.005 28.8008 569.155C28.5208 569.215 28.4508 569.505 28.5408 569.675C28.0208 570.135 27.9508 570.865 28.5008 571.335C29.0208 571.785 29.9708 572.035 30.5308 571.505V571.515Z" fill="#7896B3"/>
<path d="M140.521 537.175C139.311 537.105 138.091 537.025 136.881 536.925C134.421 536.725 130.971 537.145 128.931 535.455C128.701 535.265 128.611 534.845 128.891 534.615C132.701 531.405 136.891 534.935 140.971 535.105C141.491 531.965 141.421 528.645 141.181 525.895C140.981 523.545 140.481 521.325 139.651 519.305C137.391 522.395 135.381 525.695 132.411 528.095C131.221 529.055 128.151 531.915 126.591 530.755C124.881 529.485 127.871 527.455 128.791 526.835C132.571 524.325 136.261 521.875 139.161 518.195C137.701 515.215 135.451 512.785 132.311 511.265C130.101 510.195 127.701 509.425 125.211 508.895C125.761 512.725 125.171 518.415 121.621 519.365C119.121 520.035 117.551 517.115 117.391 514.805C117.201 512.125 118.921 509.725 120.991 508.205C117.211 507.775 113.351 507.795 109.751 508.065C109.081 508.115 108.411 508.185 107.741 508.255C107.741 508.325 107.711 508.395 107.671 508.465C105.891 511.925 103.861 515.865 103.511 519.815C103.381 521.285 103.991 523.215 103.221 524.595C102.001 526.765 99.7208 524.975 99.3808 523.215C98.7608 520.005 100.261 515.965 101.291 512.955C101.721 511.695 102.181 510.355 102.691 509.025C98.1708 509.955 93.7308 511.545 89.8508 514.285C88.5508 515.205 87.3608 516.235 86.2508 517.375C85.7608 521.275 85.9108 525.215 87.3408 528.725C88.3708 531.245 91.2508 536.005 88.4408 538.645C86.5108 540.465 85.3708 536.995 84.9608 535.545C83.7008 531.015 83.1708 526.145 82.9608 521.345C81.0008 524.175 79.4308 527.325 78.2008 530.595C76.9908 533.795 76.0308 537.145 75.2908 540.515C77.6608 542.195 80.4508 542.875 83.0208 544.345C84.2208 545.035 86.6008 546.485 85.4508 548.325C83.0608 552.125 77.6408 547.725 74.5908 544.465C74.3408 547.535 75.3408 549.975 77.4808 552.205C82.1108 557.015 89.3708 558.565 95.0008 554.205C94.7808 559.825 98.9808 564.435 104.461 563.655C106.431 563.375 108.061 562.385 109.501 561.065C108.221 561.195 106.941 561.255 105.671 561.205C104.031 561.145 101.231 561.015 100.571 559.055C99.9308 557.175 101.651 557.065 102.851 557.525C104.331 558.095 105.281 558.905 106.971 558.945C108.871 558.985 110.751 558.375 112.561 557.655C114.621 555.195 116.621 553.015 119.541 551.485C120.661 550.905 121.831 550.405 123.011 549.955C120.711 549.755 117.331 549.355 116.581 547.255C115.321 543.755 120.641 543.525 122.441 543.815C124.841 544.205 127.131 544.965 129.571 545.135C131.641 545.275 133.651 545.015 135.631 544.475C136.041 544.185 136.441 543.875 136.821 543.535C138.681 541.925 139.821 539.655 140.491 537.155L140.521 537.175ZM97.3508 539.745C96.2708 539.705 95.7508 538.405 95.6308 537.425C95.5108 536.475 95.6608 535.505 96.0708 534.655C96.0708 534.585 96.0708 534.505 96.1008 534.405C96.3308 533.725 96.7108 532.925 97.4208 532.715C97.9608 532.555 98.4708 532.825 98.8408 533.215C99.6808 534.115 100.011 535.645 99.7808 536.915C99.5808 538.045 98.6108 539.785 97.3508 539.745ZM110.841 526.755C110.241 525.585 110.671 524.165 111.651 523.315C111.751 523.235 111.851 523.205 111.951 523.195C112.911 522.535 114.051 522.655 114.611 523.815C115.221 525.065 114.751 526.645 113.621 527.445C112.611 528.155 111.401 527.825 110.841 526.745V526.755ZM108.711 551.265C108.041 552.385 106.491 552.865 105.601 551.895C104.901 551.125 104.871 549.995 105.241 549.025C105.051 548.835 104.991 548.505 105.261 548.265C107.111 546.675 110.061 549.005 108.701 551.275L108.711 551.265Z" fill="#87A8C7"/>
<path d="M80.5208 577.705C81.1708 577.685 81.8308 577.645 82.4608 577.635C83.1308 575.675 83.8607 573.725 84.7307 571.815C84.9607 571.305 85.2008 570.795 85.4608 570.285C90.1308 560.635 97.0007 552.295 105.411 545.625C106.361 544.865 105.011 543.535 104.071 544.285C95.5107 551.075 88.4907 559.605 83.7307 569.465C83.6207 569.705 83.5107 569.945 83.4207 570.175C82.2607 572.605 81.3307 575.135 80.5107 577.695L80.5208 577.705Z" fill="#7896B3"/>
<path d="M70.4209 577.825C71.0609 577.845 71.6909 577.845 72.3309 577.845C72.6809 575.195 73.0909 572.535 73.5509 569.905C74.3309 565.325 75.2609 560.765 76.2609 556.245C78.4109 546.685 80.9309 537.215 83.4809 527.745C85.9709 518.495 88.6409 509.275 94.3509 501.425C95.0809 500.445 93.4209 499.495 92.7209 500.475C87.2309 508.005 84.4909 516.775 82.0709 525.685C79.2009 536.245 76.3809 546.835 74.0609 557.525C73.1709 561.635 72.3309 565.755 71.6409 569.895C71.1909 572.535 70.7909 575.185 70.4409 577.815L70.4209 577.825Z" fill="#7896B3"/>
<path d="M47.8008 534.325C50.2908 539.395 52.3207 544.615 53.9807 549.915C54.2307 550.675 54.4507 551.445 54.6707 552.205H54.6907C56.4207 558.135 57.7207 564.185 58.6907 570.305C59.0907 572.685 59.4208 575.095 59.7108 577.505C60.3308 577.535 60.9608 577.575 61.6208 577.595C61.3108 575.125 60.9808 572.665 60.5808 570.215C59.7108 564.745 58.6007 559.335 57.1407 554.005C56.8707 553.025 56.6007 552.025 56.2907 551.045C54.4907 545.025 52.2607 539.125 49.4407 533.365C48.9107 532.255 47.2808 533.215 47.8008 534.325Z" fill="#7896B3"/>
<path d="M30.2008 563.435C35.1108 560.185 40.0008 556.855 44.9408 553.655C47.7008 551.875 50.4308 550.545 53.7408 551.765C54.0708 551.895 54.3808 552.035 54.6708 552.205C55.5808 552.665 56.4008 553.295 57.1408 554.005C58.1008 554.935 58.9408 556.025 59.6108 557.125C61.8808 560.885 63.0108 565.375 63.6308 570.065C63.9808 572.595 64.1808 575.175 64.3208 577.695C64.9208 577.725 65.5408 577.745 66.1708 577.765C66.0108 575.225 65.8208 572.585 65.4808 569.985C64.6608 563.555 62.9608 557.335 58.8308 553.105C58.0508 552.305 57.1908 551.595 56.2908 551.035C55.5408 550.565 54.7808 550.185 53.9808 549.905C52.0008 549.215 49.8608 549.155 47.6708 549.995C44.8208 551.105 42.1508 553.325 39.6008 555.015C36.1608 557.305 32.7308 559.575 29.3008 561.865C28.3208 562.505 29.2308 564.085 30.2108 563.425L30.2008 563.435Z" fill="#7896B3"/>
<path d="M442.121 670.895H545.421L545.421 176.255H442.121L442.121 670.895Z" fill="#B0D3F4"/>
<path d="M532.161 670.895H545.421L545.421 176.255H532.161L532.161 670.895Z" fill="#D8E4F0"/>
<path d="M356.541 168.755H283.091V670.895H356.541V168.755Z" fill="#7896B3"/>
<path d="M343.281 670.895H356.541L356.541 176.255H343.281L343.281 670.895Z" fill="#D8E4F0"/>
<path d="M343.271 267.825H538.791V257.425H343.271V267.825Z" fill="#D8E4F0"/>
<path d="M343.271 189.545L545.421 189.545V168.745L343.271 168.745V189.545Z" fill="#D8E4F0"/>
<path d="M356.541 257.425H532.161V189.545L356.541 189.545V257.425Z" fill="#87A8C7"/>
<path d="M463.211 195.715H521.021C522.441 195.715 523.591 196.865 523.591 198.285V248.685C523.591 250.105 522.441 251.255 521.021 251.255H463.221C461.801 251.255 460.651 250.105 460.651 248.685V198.285C460.651 196.865 461.801 195.715 463.221 195.715H463.211Z" fill="black"/>
<path d="M366.361 195.715H372.281C372.781 195.715 373.181 196.115 373.181 196.615V250.355C373.181 250.855 372.781 251.255 372.281 251.255H366.361C365.861 251.255 365.461 250.855 365.461 250.355V196.605C365.461 196.105 365.861 195.705 366.361 195.705V195.715Z" fill="#2563EB"/>
<path d="M513.231 211.705H470.241C467.741 211.705 465.711 209.675 465.711 207.175V205.825C465.711 203.325 467.741 201.295 470.241 201.295H513.231C515.731 201.295 517.761 203.325 517.761 205.825V207.175C517.761 209.675 515.731 211.705 513.231 211.705Z" fill="#87A8C7"/>
<path d="M513.231 211.705H470.241C467.741 211.705 465.711 209.675 465.711 207.175V205.825C465.711 203.325 467.741 201.295 470.241 201.295H513.231C515.731 201.295 517.761 203.325 517.761 205.825V207.175C517.761 209.675 515.731 211.705 513.231 211.705Z" fill="#87A8C7"/>
<path d="M506.771 204.665H476.691V208.315H506.771V204.665Z" fill="black"/>
<path d="M453.441 200.255H430.321V212.175H453.441V200.255Z" fill="black"/>
<path d="M420.051 200.255H396.931V212.175H420.051V200.255Z" fill="black"/>
<path d="M414.711 219.715H380.741V231.635H414.711V219.715Z" fill="black"/>
<path d="M383.321 227.865H412.121V223.485H383.321V227.865Z" fill="#87A8C7"/>
<path d="M414.711 237.975H380.741V249.895H414.711V237.975Z" fill="black"/>
<path d="M383.321 246.125H412.121V241.745H383.321V246.125Z" fill="#87A8C7"/>
<path d="M513.231 228.695H470.241C467.741 228.695 465.711 226.665 465.711 224.165V222.815C465.711 220.315 467.741 218.285 470.241 218.285H513.231C515.731 218.285 517.761 220.315 517.761 222.815V224.165C517.761 226.665 515.731 228.695 513.231 228.695Z" fill="#87A8C7"/>
<path d="M513.231 245.695H470.251C467.751 245.695 465.721 243.665 465.721 241.165V239.815C465.721 237.315 467.751 235.285 470.251 235.285H513.241C515.741 235.285 517.771 237.315 517.771 239.815V241.165C517.771 243.665 515.741 245.695 513.241 245.695H513.231Z" fill="#87A8C7"/>
<path d="M506.771 221.665H476.691V225.315H506.771V221.665Z" fill="black"/>
<path d="M506.771 238.655H476.691V242.305H506.771V238.655Z" fill="black"/>
<path d="M452.661 226.625C452.661 224.505 451.021 222.785 448.991 222.785C446.961 222.785 445.321 224.505 445.321 226.625C445.321 228.745 446.961 230.455 448.991 230.455C451.021 230.455 452.661 228.735 452.661 226.625Z" fill="#2563EB"/>
<path d="M440.441 226.625C440.441 224.505 438.801 222.785 436.771 222.785C434.741 222.785 433.101 224.505 433.101 226.625C433.101 228.745 434.741 230.455 436.771 230.455C438.801 230.455 440.441 228.735 440.441 226.625Z" fill="#EAF0F5"/>
<path d="M428.211 226.625C428.211 224.505 426.571 222.785 424.541 222.785C422.511 222.785 420.871 224.505 420.871 226.625C420.871 228.745 422.511 230.455 424.541 230.455C426.571 230.455 428.211 228.735 428.211 226.625Z" fill="#2563EB"/>
<path d="M389.411 206.215C389.411 203.405 387.221 201.115 384.531 201.115C381.841 201.115 379.651 203.395 379.651 206.215C379.651 209.035 381.831 211.315 384.531 211.315C387.231 211.315 389.411 209.035 389.411 206.215Z" fill="#EAF0F5"/>
<path d="M452.661 241.335C452.661 239.215 451.021 237.495 448.991 237.495C446.961 237.495 445.321 239.215 445.321 241.335C445.321 243.455 446.961 245.175 448.991 245.175C451.021 245.175 452.661 243.455 452.661 241.335Z" fill="#EAF0F5"/>
<path d="M440.441 241.335C440.441 239.215 438.801 237.495 436.771 237.495C434.741 237.495 433.101 239.215 433.101 241.335C433.101 243.455 434.741 245.175 436.771 245.175C438.801 245.175 440.441 243.455 440.441 241.335Z" fill="#2563EB"/>
<path d="M428.211 241.335C428.211 239.215 426.571 237.495 424.541 237.495C422.511 237.495 420.871 239.215 420.871 241.335C420.871 243.455 422.511 245.175 424.541 245.175C426.571 245.175 428.211 243.455 428.211 241.335Z" fill="#EAF0F5"/>
<path d="M343.271 346.105H538.791V335.705H343.271V346.105Z" fill="#D8E4F0"/>
<path d="M356.541 335.705H532.161V267.825H356.541V335.705Z" fill="#87A8C7"/>
<path d="M463.211 273.995H521.011C522.431 273.995 523.581 275.145 523.581 276.565V326.965C523.581 328.385 522.431 329.535 521.011 329.535H463.211C461.791 329.535 460.641 328.385 460.641 326.965V276.565C460.641 275.145 461.791 273.995 463.211 273.995Z" fill="black"/>
<path d="M366.361 273.995H372.281C372.781 273.995 373.181 274.395 373.181 274.895V328.635C373.181 329.135 372.781 329.535 372.281 329.535H366.361C365.861 329.535 365.461 329.135 365.461 328.635V274.885C365.461 274.385 365.861 273.985 366.361 273.985V273.995Z" fill="#2563EB"/>
<path d="M513.231 289.975H470.241C467.741 289.975 465.711 287.945 465.711 285.445V284.095C465.711 281.595 467.741 279.565 470.241 279.565H513.231C515.731 279.565 517.761 281.595 517.761 284.095V285.445C517.761 287.945 515.731 289.975 513.231 289.975Z" fill="#87A8C7"/>
<path d="M513.231 289.975H470.241C467.741 289.975 465.711 287.945 465.711 285.445V284.095C465.711 281.595 467.741 279.565 470.241 279.565H513.231C515.731 279.565 517.761 281.595 517.761 284.095V285.445C517.761 287.945 515.731 289.975 513.231 289.975Z" fill="#87A8C7"/>
<path d="M506.771 282.945H476.691V286.595H506.771V282.945Z" fill="black"/>
<path d="M453.441 278.535H430.321V290.455H453.441V278.535Z" fill="black"/>
<path d="M420.051 278.535H396.931V290.455H420.051V278.535Z" fill="black"/>
<path d="M414.711 297.995H380.741V309.915H414.711V297.995Z" fill="black"/>
<path d="M383.321 306.155H412.121V301.775H383.321V306.155Z" fill="#87A8C7"/>
<path d="M414.711 316.255H380.741V328.175H414.711V316.255Z" fill="black"/>
<path d="M383.321 324.395H412.121V320.015H383.321V324.395Z" fill="#87A8C7"/>
<path d="M513.231 306.975H470.241C467.741 306.975 465.711 304.945 465.711 302.445V301.095C465.711 298.595 467.741 296.565 470.241 296.565H513.231C515.731 296.565 517.761 298.595 517.761 301.095V302.445C517.761 304.945 515.731 306.975 513.231 306.975Z" fill="#87A8C7"/>
<path d="M513.231 323.975H470.241C467.741 323.975 465.711 321.945 465.711 319.445V318.095C465.711 315.595 467.741 313.565 470.241 313.565H513.231C515.731 313.565 517.761 315.595 517.761 318.095V319.445C517.761 321.945 515.731 323.975 513.231 323.975Z" fill="#87A8C7"/>
<path d="M506.771 299.945H476.691V303.595H506.771V299.945Z" fill="black"/>
<path d="M506.771 316.935H476.691V320.585H506.771V316.935Z" fill="black"/>
<path d="M452.661 304.905C452.661 302.785 451.021 301.075 448.991 301.075C446.961 301.075 445.321 302.795 445.321 304.905C445.321 307.015 446.961 308.745 448.991 308.745C451.021 308.745 452.661 307.025 452.661 304.905Z" fill="#2563EB"/>
<path d="M440.441 304.905C440.441 302.785 438.801 301.075 436.771 301.075C434.741 301.075 433.101 302.795 433.101 304.905C433.101 307.015 434.741 308.745 436.771 308.745C438.801 308.745 440.441 307.025 440.441 304.905Z" fill="#EAF0F5"/>
<path d="M428.211 304.905C428.211 302.785 426.571 301.075 424.541 301.075C422.511 301.075 420.871 302.795 420.871 304.905C420.871 307.015 422.511 308.745 424.541 308.745C426.571 308.745 428.211 307.025 428.211 304.905Z" fill="#2563EB"/>
<path d="M389.411 284.495C389.411 281.675 387.221 279.395 384.531 279.395C381.841 279.395 379.651 281.675 379.651 284.495C379.651 287.315 381.831 289.595 384.531 289.595C387.231 289.595 389.411 287.315 389.411 284.495Z" fill="#EAF0F5"/>
<path d="M452.661 319.615C452.661 317.495 451.021 315.775 448.991 315.775C446.961 315.775 445.321 317.495 445.321 319.615C445.321 321.735 446.961 323.445 448.991 323.445C451.021 323.445 452.661 321.725 452.661 319.615Z" fill="#EAF0F5"/>
<path d="M440.441 319.615C440.441 317.495 438.801 315.775 436.771 315.775C434.741 315.775 433.101 317.495 433.101 319.615C433.101 321.735 434.741 323.445 436.771 323.445C438.801 323.445 440.441 321.725 440.441 319.615Z" fill="#2563EB"/>
<path d="M428.211 319.615C428.211 317.495 426.571 315.775 424.541 315.775C422.511 315.775 420.871 317.495 420.871 319.615C420.871 321.735 422.511 323.445 424.541 323.445C426.571 323.445 428.211 321.725 428.211 319.615Z" fill="#EAF0F5"/>
<path d="M343.271 424.385H538.791V413.985H343.271V424.385Z" fill="#D8E4F0"/>
<path d="M356.541 413.985H532.161V346.105H356.541V413.985Z" fill="#87A8C7"/>
<path d="M463.221 352.275H521.021C522.441 352.275 523.591 353.425 523.591 354.845V405.245C523.591 406.665 522.441 407.815 521.021 407.815H463.221C461.801 407.815 460.651 406.665 460.651 405.245V354.845C460.651 353.425 461.801 352.275 463.221 352.275Z" fill="black"/>
<path d="M366.361 352.275H372.281C372.781 352.275 373.181 352.675 373.181 353.175V406.925C373.181 407.425 372.781 407.825 372.281 407.825H366.361C365.861 407.825 365.461 407.425 365.461 406.925V353.175C365.461 352.675 365.861 352.275 366.361 352.275Z" fill="#2563EB"/>
<path d="M470.241 368.255H513.231C515.733 368.255 517.761 366.227 517.761 363.725V362.375C517.761 359.873 515.733 357.845 513.231 357.845H470.241C467.739 357.845 465.711 359.873 465.711 362.375V363.725C465.711 366.227 467.739 368.255 470.241 368.255Z" fill="#87A8C7"/>
<path d="M470.241 368.255H513.231C515.733 368.255 517.761 366.227 517.761 363.725V362.375C517.761 359.873 515.733 357.845 513.231 357.845H470.241C467.739 357.845 465.711 359.873 465.711 362.375V363.725C465.711 366.227 467.739 368.255 470.241 368.255Z" fill="#87A8C7"/>
<path d="M506.771 361.225H476.691V364.875H506.771V361.225Z" fill="black"/>
<path d="M453.441 356.815H430.321V368.735H453.441V356.815Z" fill="black"/>
<path d="M420.051 356.815H396.931V368.735H420.051V356.815Z" fill="black"/>
<path d="M414.711 376.275H380.741V388.195H414.711V376.275Z" fill="black"/>
<path d="M383.321 384.425H412.121V380.045H383.321V384.425Z" fill="#87A8C7"/>
<path d="M414.711 394.525H380.741V406.445H414.711V394.525Z" fill="black"/>
<path d="M383.321 402.675H412.121V398.295H383.321V402.675Z" fill="#87A8C7"/>
<path d="M513.231 385.245H470.241C467.741 385.245 465.711 383.215 465.711 380.715V379.365C465.711 376.865 467.741 374.835 470.241 374.835H513.231C515.731 374.835 517.761 376.865 517.761 379.365V380.715C517.761 383.215 515.731 385.245 513.231 385.245Z" fill="#87A8C7"/>
<path d="M513.231 402.245H470.241C467.741 402.245 465.711 400.215 465.711 397.715V396.365C465.711 393.865 467.741 391.835 470.241 391.835H513.231C515.731 391.835 517.761 393.865 517.761 396.365V397.715C517.761 400.215 515.731 402.245 513.231 402.245Z" fill="#87A8C7"/>
<path d="M506.771 378.215H476.691V381.865H506.771V378.215Z" fill="black"/>
<path d="M506.771 395.215H476.691V398.865H506.771V395.215Z" fill="black"/>
<path d="M452.661 383.185C452.661 381.065 451.021 379.345 448.991 379.345C446.961 379.345 445.321 381.065 445.321 383.185C445.321 385.305 446.961 387.015 448.991 387.015C451.021 387.015 452.661 385.295 452.661 383.185Z" fill="#2563EB"/>
<path d="M440.441 383.185C440.441 381.065 438.801 379.345 436.771 379.345C434.741 379.345 433.101 381.065 433.101 383.185C433.101 385.305 434.741 387.015 436.771 387.015C438.801 387.015 440.441 385.295 440.441 383.185Z" fill="#EAF0F5"/>
<path d="M428.211 383.185C428.211 381.065 426.571 379.345 424.541 379.345C422.511 379.345 420.871 381.065 420.871 383.185C420.871 385.305 422.511 387.015 424.541 387.015C426.571 387.015 428.211 385.295 428.211 383.185Z" fill="#2563EB"/>
<path d="M389.411 362.775C389.411 359.965 387.221 357.675 384.531 357.675C381.841 357.675 379.651 359.955 379.651 362.775C379.651 365.595 381.831 367.875 384.531 367.875C387.231 367.875 389.411 365.595 389.411 362.775Z" fill="#EAF0F5"/>
<path d="M452.661 397.895C452.661 395.775 451.021 394.055 448.991 394.055C446.961 394.055 445.321 395.775 445.321 397.895C445.321 400.015 446.961 401.735 448.991 401.735C451.021 401.735 452.661 400.015 452.661 397.895Z" fill="#EAF0F5"/>
<path d="M440.441 397.895C440.441 395.775 438.801 394.055 436.771 394.055C434.741 394.055 433.101 395.775 433.101 397.895C433.101 400.015 434.741 401.735 436.771 401.735C438.801 401.735 440.441 400.015 440.441 397.895Z" fill="#2563EB"/>
<path d="M428.211 397.895C428.211 395.775 426.571 394.055 424.541 394.055C422.511 394.055 420.871 395.775 420.871 397.895C420.871 400.015 422.511 401.735 424.541 401.735C426.571 401.735 428.211 400.015 428.211 397.895Z" fill="#EAF0F5"/>
<path d="M343.271 502.655H538.791V492.255H343.271V502.655Z" fill="#D8E4F0"/>
<path d="M356.541 492.265H532.161V424.385H356.541V492.265Z" fill="#87A8C7"/>
<path d="M463.211 430.555H521.011C522.431 430.555 523.581 431.705 523.581 433.125V483.525C523.581 484.945 522.431 486.095 521.011 486.095H463.211C461.791 486.095 460.641 484.945 460.641 483.525V433.125C460.641 431.705 461.791 430.555 463.211 430.555Z" fill="black"/>
<path d="M366.361 430.555H372.281C372.781 430.555 373.181 430.955 373.181 431.455V485.205C373.181 485.705 372.781 486.105 372.281 486.105H366.351C365.851 486.105 365.451 485.705 365.451 485.205V431.465C365.451 430.965 365.851 430.565 366.351 430.565L366.361 430.555Z" fill="#2563EB"/>
<path d="M470.241 446.535H513.231C515.733 446.535 517.761 444.507 517.761 442.005V440.655C517.761 438.153 515.733 436.125 513.231 436.125H470.241C467.739 436.125 465.711 438.153 465.711 440.655V442.005C465.711 444.507 467.739 446.535 470.241 446.535Z" fill="#87A8C7"/>
<path d="M470.241 446.535H513.231C515.733 446.535 517.761 444.507 517.761 442.005V440.655C517.761 438.153 515.733 436.125 513.231 436.125H470.241C467.739 436.125 465.711 438.153 465.711 440.655V442.005C465.711 444.507 467.739 446.535 470.241 446.535Z" fill="#87A8C7"/>
<path d="M506.771 439.505H476.691V443.155H506.771V439.505Z" fill="black"/>
<path d="M453.441 435.085H430.321V447.005H453.441V435.085Z" fill="black"/>
<path d="M420.051 435.085H396.931V447.005H420.051V435.085Z" fill="black"/>
<path d="M414.711 454.555H380.741V466.475H414.711V454.555Z" fill="black"/>
<path d="M383.321 462.705H412.121V458.325H383.321V462.705Z" fill="#87A8C7"/>
<path d="M414.711 472.805H380.741V484.725H414.711V472.805Z" fill="black"/>
<path d="M383.321 480.955H412.121V476.575H383.321V480.955Z" fill="#87A8C7"/>
<path d="M513.231 463.535H470.241C467.741 463.535 465.711 461.505 465.711 459.005V457.655C465.711 455.155 467.741 453.125 470.241 453.125H513.231C515.731 453.125 517.761 455.155 517.761 457.655V459.005C517.761 461.505 515.731 463.535 513.231 463.535Z" fill="#87A8C7"/>
<path d="M470.241 480.525H513.231C515.733 480.525 517.761 478.497 517.761 475.995V474.645C517.761 472.143 515.733 470.115 513.231 470.115H470.241C467.739 470.115 465.711 472.143 465.711 474.645V475.995C465.711 478.497 467.739 480.525 470.241 480.525Z" fill="#87A8C7"/>
<path d="M506.771 456.495H476.691V460.145H506.771V456.495Z" fill="black"/>
<path d="M506.771 473.495H476.691V477.145H506.771V473.495Z" fill="black"/>
<path d="M452.661 461.455C452.661 459.335 451.021 457.625 448.991 457.625C446.961 457.625 445.321 459.345 445.321 461.455C445.321 463.565 446.961 465.295 448.991 465.295C451.021 465.295 452.661 463.575 452.661 461.455Z" fill="#2563EB"/>
<path d="M440.441 461.455C440.441 459.335 438.801 457.625 436.771 457.625C434.741 457.625 433.101 459.345 433.101 461.455C433.101 463.565 434.741 465.295 436.771 465.295C438.801 465.295 440.441 463.575 440.441 461.455Z" fill="#EAF0F5"/>
<path d="M428.211 461.455C428.211 459.335 426.571 457.625 424.541 457.625C422.511 457.625 420.871 459.345 420.871 461.455C420.871 463.565 422.511 465.295 424.541 465.295C426.571 465.295 428.211 463.575 428.211 461.455Z" fill="#2563EB"/>
<path d="M389.411 441.055C389.411 438.245 387.221 435.955 384.531 435.955C381.841 435.955 379.651 438.235 379.651 441.055C379.651 443.875 381.831 446.155 384.531 446.155C387.231 446.155 389.411 443.875 389.411 441.055Z" fill="#EAF0F5"/>
<path d="M452.661 476.175C452.661 474.055 451.021 472.345 448.991 472.345C446.961 472.345 445.321 474.065 445.321 476.175C445.321 478.285 446.961 480.015 448.991 480.015C451.021 480.015 452.661 478.295 452.661 476.175Z" fill="#EAF0F5"/>
<path d="M440.441 476.175C440.441 474.055 438.801 472.345 436.771 472.345C434.741 472.345 433.101 474.065 433.101 476.175C433.101 478.285 434.741 480.015 436.771 480.015C438.801 480.015 440.441 478.295 440.441 476.175Z" fill="#2563EB"/>
<path d="M428.211 476.175C428.211 474.055 426.571 472.345 424.541 472.345C422.511 472.345 420.871 474.065 420.871 476.175C420.871 478.285 422.511 480.015 424.541 480.015C426.571 480.015 428.211 478.295 428.211 476.175Z" fill="#EAF0F5"/>
<path d="M343.271 580.945H538.791V570.545H343.271V580.945Z" fill="#D8E4F0"/>
<path d="M356.541 570.535H532.161V502.655H356.541V570.535Z" fill="#87A8C7"/>
<path d="M463.211 508.825H521.011C522.431 508.825 523.581 509.975 523.581 511.395V561.795C523.581 563.215 522.431 564.365 521.011 564.365H463.211C461.791 564.365 460.641 563.215 460.641 561.795V511.395C460.641 509.975 461.791 508.825 463.211 508.825Z" fill="black"/>
<path d="M366.361 508.825H372.281C372.781 508.825 373.181 509.225 373.181 509.725V563.475C373.181 563.975 372.781 564.375 372.281 564.375H366.361C365.861 564.375 365.461 563.975 365.461 563.475V509.725C365.461 509.225 365.861 508.825 366.361 508.825Z" fill="#2563EB"/>
<path d="M513.231 524.805H470.251C467.751 524.805 465.721 522.775 465.721 520.275V518.925C465.721 516.425 467.751 514.395 470.251 514.395H513.241C515.741 514.395 517.771 516.425 517.771 518.925V520.275C517.771 522.775 515.741 524.805 513.241 524.805H513.231Z" fill="#87A8C7"/>
<path d="M513.231 524.805H470.251C467.751 524.805 465.721 522.775 465.721 520.275V518.925C465.721 516.425 467.751 514.395 470.251 514.395H513.241C515.741 514.395 517.771 516.425 517.771 518.925V520.275C517.771 522.775 515.741 524.805 513.241 524.805H513.231Z" fill="#87A8C7"/>
<path d="M506.771 517.775H476.691V521.425H506.771V517.775Z" fill="black"/>
<path d="M453.441 513.365H430.321V525.285H453.441V513.365Z" fill="black"/>
<path d="M420.051 513.365H396.931V525.285H420.051V513.365Z" fill="black"/>
<path d="M414.711 532.825H380.741V544.745H414.711V532.825Z" fill="black"/>
<path d="M383.321 540.985H412.121V536.605H383.321V540.985Z" fill="#87A8C7"/>
<path d="M414.711 551.085H380.741V563.005H414.711V551.085Z" fill="black"/>
<path d="M383.321 559.235H412.121V554.855H383.321V559.235Z" fill="#87A8C7"/>
<path d="M513.231 541.805H470.241C467.741 541.805 465.711 539.775 465.711 537.275V535.925C465.711 533.425 467.741 531.395 470.241 531.395H513.221C515.721 531.395 517.751 533.425 517.751 535.925V537.275C517.751 539.775 515.721 541.805 513.221 541.805H513.231Z" fill="#87A8C7"/>
<path d="M470.241 558.795H513.231C515.733 558.795 517.761 556.767 517.761 554.265V552.915C517.761 550.413 515.733 548.385 513.231 548.385H470.241C467.739 548.385 465.711 550.413 465.711 552.915V554.265C465.711 556.767 467.739 558.795 470.241 558.795Z" fill="#87A8C7"/>
<path d="M506.771 534.775H476.691V538.425H506.771V534.775Z" fill="black"/>
<path d="M506.771 551.775H476.691V555.425H506.771V551.775Z" fill="black"/>
<path d="M452.661 539.745C452.661 537.625 451.021 535.905 448.991 535.905C446.961 535.905 445.321 537.625 445.321 539.745C445.321 541.865 446.961 543.575 448.991 543.575C451.021 543.575 452.661 541.855 452.661 539.745Z" fill="#2563EB"/>
<path d="M440.441 539.745C440.441 537.625 438.801 535.905 436.771 535.905C434.741 535.905 433.101 537.625 433.101 539.745C433.101 541.865 434.741 543.575 436.771 543.575C438.801 543.575 440.441 541.855 440.441 539.745Z" fill="#EAF0F5"/>
<path d="M428.211 539.745C428.211 537.625 426.571 535.905 424.541 535.905C422.511 535.905 420.871 537.625 420.871 539.745C420.871 541.865 422.511 543.575 424.541 543.575C426.571 543.575 428.211 541.855 428.211 539.745Z" fill="#2563EB"/>
<path d="M389.411 519.325C389.411 516.505 387.221 514.225 384.531 514.225C381.841 514.225 379.651 516.505 379.651 519.325C379.651 522.145 381.831 524.425 384.531 524.425C387.231 524.425 389.411 522.145 389.411 519.325Z" fill="#EAF0F5"/>
<path d="M452.661 554.455C452.661 552.335 451.021 550.615 448.991 550.615C446.961 550.615 445.321 552.335 445.321 554.455C445.321 556.575 446.961 558.285 448.991 558.285C451.021 558.285 452.661 556.565 452.661 554.455Z" fill="#EAF0F5"/>
<path d="M440.441 554.455C440.441 552.335 438.801 550.615 436.771 550.615C434.741 550.615 433.101 552.335 433.101 554.455C433.101 556.575 434.741 558.285 436.771 558.285C438.801 558.285 440.441 556.565 440.441 554.455Z" fill="#2563EB"/>
<path d="M428.211 554.455C428.211 552.335 426.571 550.615 424.541 550.615C422.511 550.615 420.871 552.335 420.871 554.455C420.871 556.575 422.511 558.285 424.541 558.285C426.571 558.285 428.211 556.565 428.211 554.455Z" fill="#EAF0F5"/>
<path d="M343.271 670.895H538.791V648.815H343.271V670.895Z" fill="#D8E4F0"/>
<path d="M356.541 648.815H532.161V580.935H356.541V648.815Z" fill="#87A8C7"/>
<path d="M463.211 587.105H521.011C522.431 587.105 523.581 588.255 523.581 589.675V640.075C523.581 641.495 522.431 642.645 521.011 642.645H463.211C461.791 642.645 460.641 641.495 460.641 640.075V589.675C460.641 588.255 461.791 587.105 463.211 587.105Z" fill="black"/>
<path d="M366.361 642.645H372.281C372.781 642.645 373.181 642.245 373.181 641.745V588.005C373.181 587.505 372.781 587.105 372.281 587.105H366.361C365.861 587.105 365.461 587.515 365.461 588.005V641.745C365.461 642.245 365.861 642.645 366.361 642.645Z" fill="#2563EB"/>
<path d="M513.231 603.095H470.241C467.741 603.095 465.711 601.065 465.711 598.565V597.215C465.711 594.715 467.741 592.685 470.241 592.685H513.231C515.731 592.685 517.761 594.715 517.761 597.215V598.565C517.761 601.065 515.731 603.095 513.231 603.095Z" fill="#87A8C7"/>
<path d="M513.231 603.095H470.241C467.741 603.095 465.711 601.065 465.711 598.565V597.215C465.711 594.715 467.741 592.685 470.241 592.685H513.231C515.731 592.685 517.761 594.715 517.761 597.215V598.565C517.761 601.065 515.731 603.095 513.231 603.095Z" fill="#87A8C7"/>
<path d="M506.771 596.055H476.691V599.705H506.771V596.055Z" fill="black"/>
<path d="M453.441 591.645H430.321V603.565H453.441V591.645Z" fill="black"/>
<path d="M420.051 591.645H396.931V603.565H420.051V591.645Z" fill="black"/>
<path d="M414.711 611.105H380.741V623.025H414.711V611.105Z" fill="black"/>
<path d="M383.321 619.265H412.121V614.885H383.321V619.265Z" fill="#87A8C7"/>
<path d="M414.711 629.365H380.741V641.285H414.711V629.365Z" fill="black"/>
<path d="M383.321 637.515H412.121V633.135H383.321V637.515Z" fill="#87A8C7"/>
<path d="M513.231 620.085H470.241C467.741 620.085 465.711 618.055 465.711 615.555V614.205C465.711 611.705 467.741 609.675 470.241 609.675H513.231C515.731 609.675 517.761 611.705 517.761 614.205V615.555C517.761 618.055 515.731 620.085 513.231 620.085Z" fill="#87A8C7"/>
<path d="M513.231 637.085H470.241C467.741 637.085 465.711 635.055 465.711 632.555V631.205C465.711 628.705 467.741 626.675 470.241 626.675H513.231C515.731 626.675 517.761 628.705 517.761 631.205V632.555C517.761 635.055 515.731 637.085 513.231 637.085Z" fill="#87A8C7"/>
<path d="M506.771 613.055H476.691V616.705H506.771V613.055Z" fill="black"/>
<path d="M506.771 630.045H476.691V633.695H506.771V630.045Z" fill="black"/>
<path d="M452.661 618.015C452.661 615.895 451.021 614.185 448.991 614.185C446.961 614.185 445.321 615.905 445.321 618.015C445.321 620.125 446.961 621.855 448.991 621.855C451.021 621.855 452.661 620.135 452.661 618.015Z" fill="#2563EB"/>
<path d="M440.441 618.015C440.441 615.895 438.801 614.185 436.771 614.185C434.741 614.185 433.101 615.905 433.101 618.015C433.101 620.125 434.741 621.855 436.771 621.855C438.801 621.855 440.441 620.135 440.441 618.015Z" fill="#EAF0F5"/>
<path d="M428.211 618.015C428.211 615.895 426.571 614.185 424.541 614.185C422.511 614.185 420.871 615.905 420.871 618.015C420.871 620.125 422.511 621.855 424.541 621.855C426.571 621.855 428.211 620.135 428.211 618.015Z" fill="#2563EB"/>
<path d="M389.411 597.605C389.411 594.795 387.221 592.505 384.531 592.505C381.841 592.505 379.651 594.785 379.651 597.605C379.651 600.425 381.831 602.705 384.531 602.705C387.231 602.705 389.411 600.425 389.411 597.605Z" fill="#EAF0F5"/>
<path d="M452.661 632.725C452.661 630.605 451.021 628.895 448.991 628.895C446.961 628.895 445.321 630.615 445.321 632.725C445.321 634.835 446.961 636.565 448.991 636.565C451.021 636.565 452.661 634.845 452.661 632.725Z" fill="#EAF0F5"/>
<path d="M440.441 632.725C440.441 630.605 438.801 628.895 436.771 628.895C434.741 628.895 433.101 630.615 433.101 632.725C433.101 634.835 434.741 636.565 436.771 636.565C438.801 636.565 440.441 634.845 440.441 632.725Z" fill="#2563EB"/>
<path d="M428.211 632.725C428.211 630.605 426.571 628.895 424.541 628.895C422.511 628.895 420.871 630.615 420.871 632.725C420.871 634.835 422.511 636.565 424.541 636.565C426.571 636.565 428.211 634.845 428.211 632.725Z" fill="#EAF0F5"/>
<path opacity="0.12" d="M334.031 320.455C334.371 319.355 334.451 318.705 334.451 318.705C333.531 317.115 332.601 315.515 331.661 313.925C331.901 311.395 332.031 308.785 332.081 306.085C332.611 277.195 318.241 270.235 311.711 256.545C305.191 242.855 310.811 231.155 297.761 217.505C294.951 214.565 292.341 212.345 289.881 210.615C291.701 207.155 292.161 203.005 290.741 199.035C289.361 195.185 286.521 192.305 283.071 190.745V495.315C293.591 463.385 310.981 420.845 312.051 402.545C313.101 384.595 308.361 368.775 305.451 361.555C308.551 360.455 310.221 359.565 310.231 359.555C310.231 359.555 305.731 355.535 303.111 347.525C303.211 347.505 303.311 347.475 303.411 347.455C312.841 353.245 321.891 358.965 327.541 361.325C333.791 363.935 338.921 362.095 341.871 358.825C345.201 356.995 346.901 351.695 345.801 344.985C345.251 341.585 340.201 331.675 334.021 320.475L334.031 320.455Z" fill="black"/>
<path opacity="0.12" d="M283.081 657.675L290.891 619.725C290.891 619.725 290.261 615.325 283.081 613.565V657.675Z" fill="black"/>
<path d="M264.931 631.785C264.541 626.465 261.971 620.585 258.261 614.075L271.321 607.965C273.791 613.675 274.431 616.795 279.671 623.935C283.131 628.665 278.191 641.465 267.791 642.635C267.301 642.695 265.521 639.685 264.931 631.785Z" fill="#FED8C5"/>
<path d="M269.681 629.055C266.081 630.495 261.351 622.935 260.111 627.585C264.631 631.855 266.731 638.925 264.361 650.425C262.201 660.905 273.161 671.355 273.161 671.355L284.351 616.985C284.351 616.985 283.511 610.615 271.431 610.125C270.261 615.825 275.121 626.875 269.691 629.045L269.681 629.055Z" fill="black"/>
<path d="M254.011 660.545C237.851 651.065 245.511 635.285 244.121 624.325L230.581 627.515C230.581 627.515 228.221 646.855 225.801 659.065C223.371 671.275 227.031 670.595 227.031 670.595L265.691 670.135C265.691 670.135 265.291 667.165 254.011 660.555V660.545Z" fill="#FED8C5"/>
<path d="M253.201 657.215C249.461 655.965 248.081 655.955 245.901 652.195C244.511 649.565 235.821 651.065 233.801 655.515C233.801 655.515 230.131 657.495 226.181 656.575C226.071 657.425 225.941 658.255 225.781 659.055C223.351 671.265 227.011 670.585 227.011 670.585L269.591 670.715C269.591 670.715 265.581 661.345 253.191 657.205L253.201 657.215Z" fill="black"/>
<path d="M247.431 350.295C231.041 386.215 195.241 489.565 195.541 494.325C195.891 499.935 221.601 522.065 229.431 499.095C241.611 463.355 323.471 372.535 282.711 337.515C267.751 324.665 252.421 339.375 247.431 350.295Z" fill="black"/>
<path d="M292.711 353.405C290.811 347.115 287.581 341.705 282.711 337.515C282.271 337.135 281.821 336.785 281.381 336.445C281.331 336.405 281.281 336.375 281.231 336.335C278.861 334.585 276.491 333.505 274.161 332.955C275.071 362.435 269.541 390.245 261.541 414.475L258.841 374.145C258.841 374.145 242.951 403.905 242.371 439.035C242.261 445.515 240.611 451.885 237.641 457.655C224.471 483.305 217.231 500.185 215.461 502.255C217.841 501.365 221.661 504.055 225.561 505.905C227.091 504.305 228.421 502.085 229.441 499.095C240.071 467.915 303.731 394.805 292.721 353.405H292.711Z" fill="black"/>
<path d="M305.531 399.805C306.741 379.015 300.191 361.045 297.721 356.035C293.661 347.815 278.511 340.035 268.801 350.975C259.091 361.915 259.761 368.565 254.921 395.255C250.081 421.945 248.091 493.955 243.231 513.285C238.361 532.615 264.241 547.145 269.391 518.445C274.551 489.755 304.131 423.855 305.541 399.805H305.531Z" fill="black"/>
<path d="M269.041 524.285C269.661 518.715 270.431 514.775 271.471 509.265C275.931 485.805 246.231 495.635 244.871 501.805C243.161 509.545 244.121 514.095 236.761 540.465C229.401 566.825 230.241 582.575 230.911 597.075C231.591 611.575 228.391 629.935 228.391 629.935C239.431 636.915 245.141 633.975 245.141 633.975C245.141 633.975 252.361 605.655 259.081 583.145C265.811 560.625 267.591 537.335 269.031 524.295L269.041 524.285Z" fill="black"/>
<path d="M265.731 187.545C258.211 190.235 254.291 198.505 256.971 206.035C259.661 213.555 267.941 217.475 275.461 214.795C282.981 212.105 286.901 203.835 284.221 196.305C281.531 188.785 273.261 184.855 265.731 187.545Z" fill="black"/>
<path d="M305.181 253.815C298.661 240.125 304.281 228.425 291.231 214.775C278.181 201.125 269.341 202.215 260.611 202.505C238.471 203.215 225.691 235.255 239.371 250.375C252.031 264.365 246.311 273.395 241.401 288.505C236.491 303.615 240.041 348.685 279.331 347.005C318.621 345.315 325.101 327.505 325.541 303.365C326.071 274.475 311.701 267.505 305.171 253.815H305.181Z" fill="black"/>
<path d="M259.101 286.035C257.911 290.825 242.531 348.305 237.791 354.705C232.221 362.215 222.101 355.765 221.541 344.865C221.011 334.415 228.531 291.965 236.441 279.605C244.961 266.305 261.651 275.715 259.101 286.025V286.035Z" fill="#FED8C5"/>
<path d="M257.131 284.195C228.231 300.065 221.761 341.915 221.551 344.785C221.061 334.205 228.561 291.935 236.451 279.615C244.321 267.315 257.851 283.795 257.131 284.195Z" fill="#EEAC96"/>
<path d="M294.891 329.275C295.401 323.145 297.411 317.445 302.301 296.225C304.211 287.945 306.571 281.455 304.391 277.855C301.641 273.305 293.421 272.805 287.581 272.995C277.031 273.335 280.241 241.165 280.241 241.165C278.451 235.915 262.001 243.955 263.351 260.905C264.711 277.855 247.711 270.555 243.821 273.835C238.491 278.335 239.221 287.755 238.281 292.795C237.341 297.835 230.101 304.015 231.401 313.195C232.711 322.375 241.411 321.775 241.411 321.775C244.641 325.255 247.741 331.665 248.191 336.265C249.231 346.945 241.071 356.985 241.071 356.985C272.481 369.575 303.701 356.805 303.701 356.805C303.701 356.805 293.361 347.635 294.871 329.275H294.891Z" fill="#EEAC96"/>
<path d="M287.591 272.995C277.041 273.335 280.971 243.085 280.971 243.085C279.981 240.165 274.471 243.975 269.701 246.705C273.001 247.445 281.281 261.605 277.261 282.825C276.121 288.855 269.771 292.595 263.861 293.955C263.861 293.955 301.581 299.345 302.301 296.225C304.211 287.945 293.431 272.805 287.591 272.995Z" fill="#EEAC96"/>
<path d="M221.411 330.655C221.411 330.655 229.921 338.345 243.691 342.895L249.161 326.335L248.051 272.835C248.051 272.835 238.941 271.315 233.431 283.675C227.921 296.025 224.041 323.645 221.411 330.655Z" fill="#3B82F6"/>
<path d="M248.611 327.465L247.601 278.925C247.351 277.515 247.021 274.305 246.981 272.785C244.461 272.805 242.451 274.615 241.341 275.555C236.001 280.055 236.731 289.485 235.801 294.515C234.861 299.555 227.611 305.735 228.931 314.915C230.231 324.095 236.331 325.685 236.331 325.685C239.291 328.865 243.741 334.935 244.541 339.385L248.611 327.465Z" fill="#1D4ED8"/>
<path d="M294.881 329.275C295.391 323.145 297.401 317.455 302.301 296.225C304.211 287.955 306.571 281.455 304.391 277.855C301.921 273.755 295.031 272.945 289.421 272.955C283.121 287.355 270.071 295.585 260.031 291.375C253.561 288.685 249.881 281.475 249.631 272.805C247.111 272.825 244.931 272.895 243.821 273.835C238.481 278.335 239.211 287.755 238.281 292.795C237.341 297.835 230.091 304.015 231.411 313.195C232.711 322.375 241.411 321.785 241.411 321.785C244.651 325.255 247.751 331.675 248.191 336.265C249.231 346.955 241.071 356.985 241.071 356.985C279.331 370.105 303.701 356.805 303.701 356.805C303.701 356.805 293.361 347.645 294.871 329.265L294.881 329.275Z" fill="#3B82F6"/>
<path d="M294.881 329.275C295.391 323.145 297.401 317.455 302.301 296.225C304.211 287.955 306.571 281.455 304.391 277.855C302.001 273.895 295.491 273.005 290.001 272.965C289.901 273.875 289.771 274.805 289.591 275.735C287.281 287.945 278.831 297.435 268.051 301.625L274.221 302.795C281.281 304.135 285.741 311.815 284.211 318.615C283.081 323.625 279.211 327.155 274.591 328.365L271.811 343.045C269.701 354.175 279.731 363.865 290.741 361.245C297.591 359.615 303.711 356.805 303.711 356.805C303.711 356.805 293.371 347.645 294.881 329.265V329.275Z" fill="#1D4ED8"/>
<path d="M339.281 342.245C337.911 333.885 309.401 286.125 303.491 276.595C301.391 273.205 282.921 286.355 285.471 297.385C286.881 303.495 321.031 350.845 327.741 355.135C335.621 360.175 341.041 353.025 339.281 342.255V342.245Z" fill="#FED8C5"/>
<path d="M296.951 302.935C295.081 294.445 293.961 286.265 297.211 278.095C291.321 281.835 283.781 290.065 285.471 297.375C286.741 302.875 314.571 341.835 324.991 352.645C323.031 350.265 299.441 314.205 296.951 302.925V302.935Z" fill="#EEAC96"/>
<path d="M276.751 230.895C276.751 230.895 263.191 212.695 256.221 214.195C249.261 215.705 244.051 217.925 243.021 226.385C243.021 226.385 241.141 234.165 245.021 241.605C245.021 241.605 238.531 252.375 251.791 261.135C265.051 269.885 278.741 256.875 280.721 244.425C280.721 244.425 290.691 244.545 289.261 235.735C287.831 226.935 282.161 228.215 276.741 230.885L276.751 230.895Z" fill="#FED8C5"/>
<path d="M276.751 230.895C276.751 230.895 263.191 212.695 256.221 214.195C250.651 215.395 246.201 217.075 244.121 222.025C248.291 219.465 269.901 232.515 273.331 243.225C276.821 254.115 267.271 264.465 256.401 262.635C255.101 262.415 253.821 262.065 252.571 261.595C265.581 269.345 278.781 256.615 280.721 244.415C280.721 244.415 290.691 244.535 289.261 235.725C287.831 226.925 282.161 228.205 276.741 230.875L276.751 230.895Z" fill="#EEAC96"/>
<path d="M223.981 336.665C238.881 338.505 238.901 356.995 228.801 358.185C213.871 359.955 172.501 347.675 164.271 351.575C156.041 355.485 154.161 362.735 146.121 357.535C138.081 352.335 137.301 348.865 138.251 342.615C139.201 336.365 148.741 336.745 158.701 339.485C168.661 342.225 211.601 335.135 223.971 336.655L223.981 336.665Z" fill="#FED8C5"/>
<path d="M238.711 230.915C238.711 230.915 248.881 225.975 253.091 218.095C257.301 210.215 260.761 210.285 260.761 210.285C239.971 207.905 238.701 230.905 238.701 230.905L238.711 230.915Z" fill="black"/>
<path d="M255.351 213.195C253.161 216.445 254.721 223.805 264.631 229.585C274.541 235.365 275.131 245.945 279.431 238.765C283.731 231.585 283.531 230.675 281.841 223.195C280.151 215.705 260.151 206.055 255.351 213.195Z" fill="black"/>
<path d="M309.341 335.685C309.341 335.685 286.641 302.475 284.221 296.395C281.801 290.305 294.131 275.285 303.131 275.985C303.131 275.985 303.251 276.155 303.471 276.505C305.641 279.805 317.781 298.395 327.921 315.985C327.921 315.985 326.771 327.085 309.351 335.685H309.341Z" fill="#3B82F6"/>
<path d="M309.341 335.685C309.341 335.685 286.641 302.475 284.221 296.395C281.801 290.305 294.131 275.285 303.131 275.985C303.131 275.985 303.251 276.155 303.471 276.505L303.491 276.605C303.491 276.605 287.471 286.335 290.101 297.035C292.731 307.725 308.471 324.775 309.341 335.695V335.685Z" fill="#1D4ED8"/>
<path d="M269.75 317.125C263.78 310.245 250.37 307.685 245.72 312.975C244.41 314.455 243.54 315.975 242.98 317.505C241.49 321.155 241.83 324.895 242.86 328.735C242.98 329.165 247.66 333.275 248 332.495C251.43 332.495 256.51 331.145 262.35 329.335C272.24 326.285 307.06 352.735 321.03 358.585C334.88 364.375 343.3 348.355 334.52 343.205C321.55 335.605 275.73 323.995 269.76 317.115L269.75 317.125Z" fill="#FED8C5"/>
<path d="M221.541 339.155H109.631V345.065H221.541V339.155Z" fill="black"/>
<path d="M221.541 345.055H273.051V341.735C273.051 340.305 271.901 339.155 270.471 339.155H221.541V345.065V345.055Z" fill="#6E7071"/>
<path d="M112.781 339.155H224.251L209.581 270.525C209.151 268.525 207.471 267.095 205.541 267.095H105.161C101.181 267.095 98.2206 271.025 99.1106 275.165L112.791 339.155H112.781Z" fill="#6E7071"/>
<path d="M110.071 339.155H221.541L206.861 270.525C206.431 268.525 204.761 267.095 202.821 267.095H100.321C97.4208 267.095 95.2708 269.965 95.9108 272.965L110.061 339.145L110.071 339.155Z" fill="black"/>
<path opacity="0.34" d="M153.831 267.095L122.441 339.155H136.801L169.361 267.095H153.831Z" fill="#DAE7FF"/>
<path opacity="0.34" d="M177.291 267.095L145.901 339.155H151.491L184.061 267.095H177.291Z" fill="#DAE7FF"/>
<path d="M273.511 606.165C273.511 606.165 272.151 608.255 268.921 610.385C268.761 610.495 268.581 610.605 268.401 610.715C265.561 612.485 261.411 614.205 255.681 614.695C255.681 614.695 192.621 501.165 195.591 492.685C196.921 488.845 210.181 470.605 225.541 485.465C233.821 493.485 242.721 511.115 250.681 545.795C250.881 546.615 251.061 547.455 251.251 548.295C256.361 571.235 273.521 606.175 273.521 606.175L273.511 606.165Z" fill="black"/>
<path d="M273.511 606.165C273.511 606.165 272.151 608.255 268.921 610.385C268.761 610.495 268.581 610.605 268.401 610.725C256.431 590.655 242.351 555.015 238.731 536.375C236.761 526.255 233.351 513.115 230.421 502.525C228.271 494.755 226.391 488.335 225.541 485.475C233.821 493.495 242.721 511.125 250.681 545.805C250.881 546.625 251.061 547.465 251.251 548.305C256.361 571.245 273.521 606.185 273.521 606.185L273.511 606.165Z" fill="black"/>
<path d="M112.681 97.1351H25.1709C27.9709 79.4951 45.8709 72.4051 59.0809 73.2851C59.5609 63.7651 64.5309 50.0751 74.7709 40.5351C89.6609 26.6851 112.821 25.3751 128.401 38.4351C128.931 38.8751 129.351 39.1451 129.651 39.1751C133.961 15.0851 163.391 0.955078 184.061 0.955078C216.521 0.955078 237.931 28.7751 237.551 63.9051C266.611 48.6451 288.041 72.8251 288.821 97.1351H143.901V122.795H156.681L128.291 156.145L99.9009 122.795H112.681V97.1351Z" fill="#1D4ED8"/>
<path d="M140.791 156.145H128.281L125.891 142.285L147.181 134.825L140.791 156.145Z" fill="#1D4ED8"/>
<path d="M125.191 97.1351H42.9409C45.7409 79.4951 63.6409 72.4051 76.8509 73.2851C77.3309 63.7651 82.3009 50.0751 92.5409 40.5351C107.431 26.6851 130.591 25.3751 146.161 38.4351C146.691 38.8751 147.111 39.1451 147.411 39.1751C151.721 15.0851 181.151 0.955078 201.821 0.955078C234.281 0.955078 255.701 28.7751 255.311 63.9051C284.371 48.6451 305.801 72.8251 306.581 97.1351H156.391V122.795H169.171L140.791 156.145L112.401 122.795H125.181V97.1351H125.191Z" fill="#3B82F6"/>
<path d="M180.661 106.725V75.7951H167.881L196.271 42.4551L224.651 75.7951H211.881V106.725H180.661Z" fill="#7896B3"/>
<path d="M206.361 42.4551H196.271L194.371 59.9751L207.211 64.3651L206.361 42.4551Z" fill="#7896B3"/>
<path d="M190.751 106.725V75.7951H177.971L206.361 42.4551L234.741 75.7951H221.971V106.725H190.751Z" fill="#87A8C7"/>
<path d="M180.661 97.135H166.661V106.725H180.661V97.135Z" fill="#7896B3"/>
</svg>
