<svg xmlns="http://www.w3.org/2000/svg" width="28" height="28" viewBox="0 0 28 28" fill="none">
<g clip-path="url(#clip0_2544_32867)">
<path fill-rule="evenodd" clip-rule="evenodd" d="M14.9158 27.9834C22.2209 27.5115 28 21.4342 28 14.0065C28 6.2709 21.732 0 14 0C6.26801 0 0 6.2709 0 14.0065C0 21.5387 5.94286 27.6823 13.3935 28L13.3949 20.6495C10.9308 21.5474 8.24348 20.0507 7.70947 17.4831L6.67227 12.4959L5.93316 12.7412C5.77265 12.7944 5.60064 12.7005 5.55873 12.5366L5.31701 11.5917C5.29141 11.4916 5.32066 11.3854 5.39391 11.3126L7.56879 9.14962C7.63447 9.0843 7.74642 9.11789 7.76529 9.20858L9.28347 16.5073C9.66969 18.3641 11.6132 19.4462 13.3949 18.7964L13.3968 10.6642L13.1776 10.8289C13.0487 10.9258 12.8657 10.8997 12.769 10.7708L12.0751 9.8455C11.9785 9.71666 12.0045 9.53389 12.1334 9.43722L14.0872 7.97094C14.1287 7.9398 14.1858 7.93981 14.2273 7.97096L16.1804 9.43721C16.3092 9.53389 16.3352 9.71663 16.2386 9.84546L15.5445 10.771C15.4478 10.8999 15.265 10.926 15.1362 10.8294L14.9191 10.6666L14.9172 18.8039C16.6894 19.4498 18.6223 18.374 19.0073 16.5275L20.5331 9.20923C20.552 9.11858 20.6639 9.08502 20.7295 9.15032L22.881 11.29C22.966 11.3746 22.9906 11.5025 22.943 11.6125L22.5289 12.571C22.4648 12.7192 22.2925 12.7872 22.1445 12.7226L21.6252 12.4959L20.5811 17.5042C20.0479 20.0612 17.3714 21.5511 14.9172 20.657L14.9158 27.9834Z" fill="white"/>
</g>
<defs>
<clipPath id="clip0_2544_32867">
<rect width="28" height="28" fill="white"/>
</clipPath>
</defs>
</svg>