<svg width="28" height="30" viewBox="0 0 28 30" fill="none" xmlns="http://www.w3.org/2000/svg">
<g id="Icons">
<path id="Vector" d="M21.0689 12.2323L25.6666 9.58831M21.0689 12.2323V17.7376M21.0689 12.2323L11.7899 6.959M7.05641 4.26888L11.7899 1.37402L25.6666 9.58831M7.05641 4.26888L2.33331 7.10103M7.05641 4.26888L11.7899 6.959M11.7899 17.6563V12.2323M11.7899 17.6563L16.4294 14.9849M11.7899 17.6563L7.05641 20.5198M25.6666 9.58831V15.054M11.7899 28.6609L25.6666 20.5198V15.054M11.7899 28.6609V23.1534M11.7899 28.6609L7.05641 26.0482M11.7899 23.1534L21.0689 17.7376M11.7899 23.1534L7.05641 20.5198M25.6666 15.054L21.0689 17.7376M21.0689 17.7376L16.4294 14.9849M11.7899 12.2323L16.4294 14.9849M11.7899 12.2323V6.959M7.05641 26.0482L2.33331 23.1534V7.10103M7.05641 26.0482V20.5198M2.33331 7.10103L7.05641 9.81822M7.05641 20.5198V9.81822M11.7899 6.959L7.05641 9.81822" stroke="#2563EB" stroke-width="1.06667" stroke-linecap="round" stroke-linejoin="round"/>
</g>
</svg>
