<svg width="28" height="29" viewBox="0 0 28 29" fill="none" xmlns="http://www.w3.org/2000/svg">
<g id="Icons">
<path id="Vector" d="M25.6667 8.25028L14 1.5127L2.33335 8.25028M25.6667 8.25028L14 14.9879M25.6667 8.25028L25.6667 10.7326L20.9383 13.4632M14 28.463L25.6667 21.7255L25.6667 16.305M14 28.463L2.33335 21.7255V16.305M14 28.463V23.0426M2.33335 8.25028L14 14.9879M2.33335 8.25028L2.33333 10.7326L7.06166 13.4632M14 14.9879L14 17.4701M14 17.4701L18.62 14.8594M14 17.4701L9.40337 14.8594M14 23.0426L25.6667 16.305M14 23.0426L2.33335 16.305M25.6667 16.305L20.9383 13.4632M2.33335 16.305L7.06166 13.4632M7.06166 13.4632L9.40337 14.8594M20.9383 13.4632L18.62 14.8594M18.62 14.8594L20.9383 16.305L14 20.307L7.06166 16.305L9.40337 14.8594" stroke="#2563EB" stroke-width="1.06667" stroke-linecap="round" stroke-linejoin="round"/>
</g>
</svg>
