<svg width="28" height="28" viewBox="0 0 28 28" fill="none" xmlns="http://www.w3.org/2000/svg">
<g id="Icons">
<path id="Vector" d="M18.3451 3.07051L13.8859 0.593155L9.32753 3.1696M18.3451 3.07051L13.7868 5.64695M18.3451 3.07051L18.3451 8.5336L16.2641 9.70981M13.7868 5.64695L9.32753 3.1696M13.7868 5.64695L13.7868 16.4482M9.32753 3.1696L9.32753 11.0751L11.5076 12.2863M13.7868 16.4482L16.2641 17.8245M13.7868 16.4482L11.5076 17.7364M11.5076 12.2863L7.04837 9.8089L2.49004 12.3853M11.5076 12.2863L6.94927 14.8627M11.5076 12.2863L11.5076 17.7364M6.94927 14.8627L2.49004 12.3853M6.94927 14.8627L7.04837 22.7902M2.49004 12.3853L2.49004 20.2138L7.04837 22.7902M18.3451 18.9751L13.6877 21.502M18.3451 18.9751L16.2641 17.8245M18.3451 18.9751L16.2641 20.1041L13.6877 21.502M18.3451 18.9751L18.3451 24.2766M18.3451 18.9751L18.3451 21.3534M13.6877 21.502L9.22844 19.0246M13.6877 21.502L13.6877 27.0017M9.22844 19.0246L11.5076 17.7364M9.22844 19.0246L9.22844 21.502M25.2817 9.61071L20.8224 7.13336L16.2641 9.70981M25.2817 9.61071L20.7233 12.1872M25.2817 9.61071L25.2817 20.2138L20.7233 22.7902M20.7233 12.1872L16.2641 9.70981M20.7233 12.1872L20.7233 22.7902M16.2641 9.70981L16.2641 17.8245M20.7233 22.7902L18.3451 21.3534M18.3451 21.3534L18.3451 24.2766M18.3451 24.2766L13.6877 27.0017M13.6877 27.0017L9.22844 24.2766L9.22844 21.502M7.04837 22.7902L9.22844 21.502" stroke="#2563EB" stroke-width="1.06667" stroke-linecap="round" stroke-linejoin="round"/>
</g>
</svg>
