<svg width="28" height="29" viewBox="0 0 28 29" fill="none" xmlns="http://www.w3.org/2000/svg">
<g id="Icons">
<path id="Vector" d="M25.6666 8.24908L21.0396 10.9208M25.6666 8.24908L21.0396 5.5774L18.8112 6.82407M25.6666 8.24908V13.8205L23.6491 14.9855M14 28.4582L9.18873 25.6802V23.0822M14 28.4582L18.8112 25.6802V23.0822M14 28.4582V22.8361M2.33331 8.24908L6.96036 10.9208M2.33331 8.24908L6.96036 5.5774L9.18873 6.82407M2.33331 8.24908V13.8205L4.35086 14.9855M14 14.9855L9.18873 12.2074M14 14.9855L18.8112 12.2074M14 14.9855V20.5569M6.96036 24.3935L2.33331 21.7218V16.1504M6.96036 24.3935V18.802M6.96036 24.3935L9.18873 23.0822M6.96036 10.9208L11.7359 8.24908M6.96036 10.9208V16.4922M9.18873 12.2074L11.7359 10.7824M9.18873 12.2074V15.2894M18.8112 12.2074L16.2641 10.7824M18.8112 12.2074V15.2894M21.0396 24.3935L25.6666 21.7218C25.6666 21.7218 25.6666 18.3262 25.6666 16.1504M21.0396 24.3935V18.802M21.0396 24.3935L18.8112 23.0822M21.0396 10.9208L16.2641 8.24908M21.0396 10.9208V16.4922M18.8112 4.29073L14 1.5127L9.18873 4.29073M18.8112 4.29073V6.82407M18.8112 4.29073L14 6.98241M9.18873 4.29073V6.82407M9.18873 4.29073L14 6.98241M14 22.8361L18.8112 20.079M14 22.8361L9.18873 20.079M25.6666 16.1504C23.8597 17.1859 21.0396 18.802 21.0396 18.802M25.6666 16.1504C24.8787 15.6955 23.6491 14.9855 23.6491 14.9855M14 20.5569L16.6884 19.0046M14 20.5569L11.3115 19.0046M2.33331 16.1504L6.96036 18.802M2.33331 16.1504L4.35086 14.9855M6.96036 18.802L9.18873 17.7789M9.18873 17.7789L11.3115 19.0046M9.18873 17.7789V15.2894M21.0396 18.802L18.8112 17.7789M18.8112 17.7789L16.6884 19.0046M18.8112 17.7789V15.2894M18.8112 20.079L16.6884 19.0046M18.8112 20.079V23.0822M9.18873 20.079L11.3115 19.0046M9.18873 20.079V23.0822M11.7359 8.24908V10.7824M11.7359 8.24908L9.18873 6.82407M11.7359 10.7824L14 9.51575M16.2641 8.24908V10.7824M16.2641 8.24908L18.8112 6.82407M16.2641 10.7824L14 9.51575M21.0396 16.4922L18.8112 15.2894M21.0396 16.4922L23.6491 14.9855M6.96036 16.4922L9.18873 15.2894M6.96036 16.4922L4.35086 14.9855M14 9.51575V6.98241" stroke="#2563EB" stroke-width="1.06667" stroke-linecap="round" stroke-linejoin="round"/>
</g>
</svg>
