<svg width="28" height="29" viewBox="0 0 28 29" fill="none" xmlns="http://www.w3.org/2000/svg">
<g id="Icons">
<path id="Vector" d="M25.6666 8.24663L14 1.51269L2.33331 8.24663M25.6666 8.24663V21.7145L14 28.4484M25.6666 8.24663L14 14.778M14 28.4484L2.33331 21.7145V8.24663M14 28.4484V14.778M2.33331 8.24663L14 14.778M4.8839 20.2968V12.8368L6.90969 14.0312M4.8839 20.2968L11.6197 24.4486V21.7145M4.8839 20.2968L6.90969 19.1829M23.6225 20.2968V12.5503L20.9889 14.0312M23.6225 20.2968L16.3296 24.4486V21.5868M23.6225 20.2968L20.9889 19.1829M20.9889 14.0312L16.3296 16.6514V21.5868M20.9889 14.0312V19.1829M20.9889 19.1829L16.3296 21.5868M6.90969 19.1829V14.0312M6.90969 19.1829L11.6197 21.7145M6.90969 14.0312L11.6197 16.6514V21.7145M14 4.14551L6.90969 8.34789L9.39128 9.74784M14 4.14551L20.9889 8.34789L18.5428 9.74784M14 4.14551V6.95684M14 6.95684L9.39128 9.74784M14 6.95684L18.5428 9.74784M9.39128 9.74784L14 12.3477L18.5428 9.74784" stroke="#2563EB" stroke-width="1.06667" stroke-linecap="round" stroke-linejoin="round"/>
</g>
</svg>
