<svg width="28" height="29" viewBox="0 0 28 29" fill="none" xmlns="http://www.w3.org/2000/svg">
<g id="Icons">
<path id="Vector" d="M14 28.4557L25.6666 21.72V18.1115M14 28.4557L2.33331 21.72V18.1115M14 28.4557V24.9676M14 14.9842V11.6163M14 14.9842L19.7148 11.6848M14 14.9842L8.2852 11.6848M14 11.6163L19.7148 8.24845M14 11.6163L8.2852 8.24845M14 8.24845V4.88057M14 8.24845L16.7664 6.47777M14 8.24845L11.2336 6.47777M14 4.88057L16.7664 3.10989M14 4.88057L11.2336 3.10989M16.7664 3.10989L14 1.5127L11.2336 3.10989M16.7664 3.10989V6.47777M11.2336 3.10989V6.47777M14 18.3521V21.4794M14 18.3521L22.6602 13.1736M14 18.3521L5.33981 13.1736M14 21.4794L22.6602 16.3009M14 21.4794L5.33981 16.3009M14 24.9676L25.6666 18.1115M14 24.9676L2.33331 18.1115M25.6666 18.1115L22.6602 16.3009M2.33331 18.1115L5.33981 16.3009M16.7664 6.47777L19.7148 8.24845M19.7148 8.24845V11.6848M11.2336 6.47777L8.2852 8.24845M8.2852 8.24845V11.6848M19.7148 11.6848L22.6602 13.1736M8.2852 11.6848L5.33981 13.1736M22.6602 13.1736V16.3009M5.33981 13.1736V16.3009" stroke="#2563EB" stroke-width="1.06667" stroke-linecap="round" stroke-linejoin="round"/>
</g>
</svg>
