<svg width="32" height="33" viewBox="0 0 32 33" fill="none" xmlns="http://www.w3.org/2000/svg">
<g id="openai 1">
<path id="Vector" d="M26.4239 14.3209C26.6957 13.5128 26.7897 12.6569 26.6995 11.8102C26.6093 10.9634 26.337 10.1454 25.9008 9.4108C25.2539 8.30015 24.2663 7.42082 23.0801 6.8996C21.894 6.37839 20.5707 6.24223 19.301 6.51075C18.5799 5.7194 17.6604 5.12913 16.6349 4.79918C15.6093 4.46924 14.5138 4.41125 13.4584 4.63102C12.4029 4.8508 11.4247 5.34061 10.6218 6.05128C9.81897 6.76194 9.21979 7.66845 8.88443 8.67979C8.03855 8.85086 7.23943 9.19805 6.54047 9.69817C5.84151 10.1983 5.25882 10.8398 4.83133 11.5798C4.17739 12.6887 3.89792 13.9739 4.03332 15.2497C4.16873 16.5255 4.712 17.7258 5.58457 18.677C5.31133 19.4847 5.2161 20.3407 5.30527 21.1876C5.39443 22.0346 5.66593 22.853 6.1016 23.5881C6.74928 24.6991 7.73787 25.5786 8.92488 26.0998C10.1119 26.621 11.436 26.757 12.7064 26.4881C13.2794 27.1249 13.9835 27.6338 14.7718 27.9808C15.5601 28.3278 16.4144 28.5048 17.2775 28.5002C18.5789 28.5013 19.847 28.0945 20.8988 27.3385C21.9505 26.5825 22.7315 25.5164 23.1291 24.2941C23.9747 24.1226 24.7735 23.7752 25.4722 23.2751C26.1709 22.775 26.7535 22.1338 27.1812 21.394C27.8273 20.2869 28.1021 19.0066 27.966 17.7362C27.83 16.4658 27.2902 15.2704 26.4239 14.3209ZM17.2775 26.9301C16.212 26.9319 15.1798 26.5637 14.3619 25.8901L14.5048 25.8091L19.3497 23.0511C19.4701 22.9812 19.57 22.8817 19.6397 22.7624C19.7093 22.643 19.7464 22.5078 19.7471 22.37V15.6329L21.7949 16.8009C21.8051 16.806 21.8138 16.8133 21.8205 16.8224C21.8272 16.8314 21.8317 16.8419 21.8335 16.8529V22.436C21.8308 23.6271 21.3499 24.7687 20.4961 25.6109C19.6423 26.4532 18.485 26.9275 17.2775 26.9301ZM7.4844 22.8041C6.94963 21.8936 6.75757 20.8263 6.94202 19.79L7.08598 19.875L11.9349 22.634C12.0548 22.7034 12.1913 22.74 12.3303 22.74C12.4693 22.74 12.6058 22.7034 12.7257 22.634L18.6492 19.265V21.597C18.6488 21.6092 18.6455 21.6211 18.6397 21.6318C18.6339 21.6426 18.6257 21.6519 18.6157 21.659L13.709 24.4501C12.662 25.0447 11.4186 25.2053 10.2517 24.8967C9.08472 24.5881 8.08952 23.8355 7.4844 22.8041ZM6.20703 12.3959C6.74532 11.4794 7.59502 10.7805 8.60564 10.4228V16.0999C8.60387 16.237 8.63944 16.3721 8.70863 16.491C8.77782 16.6099 8.87809 16.7083 8.99899 16.7759L14.8941 20.131L12.8463 21.299C12.8352 21.3048 12.8228 21.3078 12.8103 21.3078C12.7978 21.3078 12.7854 21.3048 12.7743 21.299L7.87774 18.513C6.83227 17.9156 6.06941 16.9339 5.75626 15.7829C5.44311 14.6318 5.6052 13.4053 6.20703 12.3719V12.3959ZM23.0328 16.2509L17.1194 12.8639L19.1622 11.6998C19.1732 11.6941 19.1856 11.691 19.1981 11.691C19.2107 11.691 19.223 11.6941 19.2341 11.6998L24.1307 14.4909C24.8798 14.9168 25.4906 15.5443 25.8917 16.2999C26.2927 17.0555 26.4676 17.908 26.3957 18.758C26.3238 19.608 26.0082 20.4202 25.4858 21.0998C24.9634 21.7795 24.2557 22.2984 23.4454 22.596V16.9179C23.4411 16.781 23.4009 16.6475 23.3285 16.5306C23.2562 16.4137 23.1543 16.3173 23.0328 16.2509ZM25.0705 13.2279L24.9275 13.1429L20.0877 10.3608C19.9671 10.291 19.8297 10.2542 19.6898 10.2542C19.5499 10.2542 19.4126 10.291 19.2919 10.3608L13.3735 13.7299V11.3968C13.3722 11.3851 13.3742 11.3732 13.3792 11.3625C13.3842 11.3518 13.392 11.3426 13.4018 11.3358L18.2984 8.54879C19.049 8.1227 19.907 7.91614 20.7721 7.95325C21.6373 7.99035 22.4738 8.26959 23.1841 8.75832C23.8943 9.24706 24.4489 9.9251 24.7829 10.7132C25.1169 11.5013 25.2167 12.3669 25.0705 13.2089V13.2279ZM12.2563 17.3629L10.2084 16.1989C10.1981 16.1928 10.1893 16.1846 10.1827 16.1747C10.176 16.1648 10.1716 16.1536 10.1699 16.1419V10.5748C10.1716 9.72091 10.4196 8.88509 10.8848 8.16499C11.3501 7.4449 12.0135 6.87025 12.7975 6.50817C13.5815 6.14608 14.4537 6.0115 15.3124 6.12015C16.171 6.22881 16.9806 6.5762 17.6465 7.12176L17.5026 7.20176L12.6587 9.95981C12.5382 10.0295 12.4381 10.1289 12.3682 10.2483C12.2984 10.3677 12.2612 10.503 12.2603 10.6408L12.2563 17.3629ZM13.3684 14.9979L16.0062 13.4979L18.6492 14.9979V17.997L16.0164 19.497L13.3735 17.997L13.3684 14.9979Z" fill="#030616"/>
</g>
</svg>
