<svg width="32" height="33" viewBox="0 0 32 33" fill="none" xmlns="http://www.w3.org/2000/svg">
<g id="Spotify">
<path id="Vector" fill-rule="evenodd" clip-rule="evenodd" d="M16 25.5C20.9706 25.5 25 21.4706 25 16.5C25 11.5294 20.9706 7.5 16 7.5C11.0294 7.5 7 11.5294 7 16.5C7 21.4706 11.0294 25.5 16 25.5ZM19.3533 20.2807C19.6096 20.427 19.9376 20.3587 20.0914 20.1148C20.2451 19.8708 20.1631 19.5585 19.9068 19.4121C17.6517 18.0946 14.843 17.7921 11.573 18.5045C11.2859 18.5631 11.1117 18.8363 11.1732 19.1096C11.2347 19.3828 11.5217 19.5487 11.8087 19.4902C14.802 18.8461 17.3339 19.1096 19.3533 20.2807ZM20.2144 18.1044C20.5321 18.28 20.9422 18.1922 21.1369 17.8897C21.3317 17.5871 21.2292 17.1968 20.9319 17.0211C18.277 15.4694 14.4022 15.04 11.2859 15.9379C10.9272 16.0354 10.7324 16.3868 10.8349 16.7283C10.9374 17.0602 11.3064 17.2456 11.6652 17.148C14.3919 16.3575 17.9079 16.7479 20.2144 18.1044ZM11.2552 14.6204C13.8999 13.8592 18.4615 14.0056 21.2292 15.567C21.6085 15.7915 22.1005 15.6646 22.3158 15.2938C22.5413 14.9327 22.4183 14.4642 22.039 14.2495C18.8613 12.4539 13.8179 12.2782 10.7836 13.1565C10.3634 13.2834 10.1173 13.7128 10.2506 14.1129C10.3839 14.5228 10.8349 14.7472 11.2552 14.6204Z" fill="#1ED760"/>
</g>
</svg>
