<svg width="32" height="33" viewBox="0 0 32 33" fill="none" xmlns="http://www.w3.org/2000/svg">
<g id="framer">
<path id="Vector" d="M20.8157 13.594L19.0634 19.1623C19.0634 18.7359 17.855 9.5 17.855 9.5C15.0755 9.5 13.6012 11.4861 12.8278 13.594L10.6888 19.1745C10.6888 18.7724 10.3867 13.6427 10.3867 13.6427C10.2835 12.5323 9.78004 11.4985 8.97158 10.7373C8.16312 9.976 7.10584 9.54012 6 9.51218L8.2719 23.5C11.1722 23.5 12.7432 21.5139 13.5529 19.406L15.3656 14.654C15.3656 14.849 16.574 23.5 16.574 23.5C17.76 23.4985 18.9147 23.1162 19.8707 22.4086C20.8267 21.701 21.5344 20.7048 21.8912 19.5644L26 9.5C23.0997 9.5 21.577 11.4861 20.8036 13.594H20.8157Z" fill="url(#paint0_linear_2210_31211)"/>
</g>
<defs>
<linearGradient id="paint0_linear_2210_31211" x1="16" y1="9.5" x2="16" y2="23.5" gradientUnits="userSpaceOnUse">
<stop stop-color="white" stop-opacity="0.72"/>
<stop offset="1" stop-color="white" stop-opacity="0.9"/>
</linearGradient>
</defs>
</svg>
