<svg width="368" height="74" viewBox="0 0 368 74" fill="none" xmlns="http://www.w3.org/2000/svg">
<path d="M-0.0735851 38.8779L-1 38.9463V39.8752V91.0132V92.0051L-0.00811612 92.0131L367.992 95L369 95.0081V94V36.2548V16.3427C369 9.11118 360.806 4.92425 354.946 9.16159L323.893 31.6152C313.862 38.8689 300.14 38.1916 290.872 29.9852L275.842 16.6772C258.083 0.952962 231.75 -0.219925 212.663 13.8632C195.623 26.4364 172.377 26.4364 155.337 13.8632L152.649 11.8795C134.793 -1.29549 110.467 -1.41251 92.4851 11.5901L72.2319 26.235C64.8736 31.5557 56.1816 34.7271 47.1258 35.3953L-0.0735851 38.8779Z" fill="url(#paint0_linear_234_6714)" fill-opacity="0.2" stroke="#2196F3" stroke-width="2"/>
<defs>
<linearGradient id="paint0_linear_234_6714" x1="184" y1="-9" x2="184" y2="94" gradientUnits="userSpaceOnUse">
<stop stop-color="#2196F3"/>
<stop offset="1" stop-color="#2196F3" stop-opacity="0"/>
</linearGradient>
</defs>
</svg>
