<svg width="14" height="14" viewBox="0 0 14 14" fill="none" xmlns="http://www.w3.org/2000/svg">
<g id="logo-reddit">
<path id="Vector" d="M6.91523 13.9152C10.7344 13.9152 13.8305 10.8191 13.8305 6.99995C13.8305 3.18077 10.7344 0.0847168 6.91523 0.0847168C3.09606 0.0847168 0 3.18077 0 6.99995C0 10.8191 3.09606 13.9152 6.91523 13.9152Z" fill="#FF4500"/>
<path id="Vector_2" d="M11.5271 6.99999C11.5065 6.44309 11.0389 6.00819 10.4803 6.0271C10.2328 6.0357 9.99734 6.13713 9.81862 6.30724C9.03136 5.77093 8.10656 5.47695 7.15594 5.45636L7.60451 3.29911L9.08453 3.6103C9.12571 3.99018 9.46609 4.26525 9.84597 4.22391C10.2258 4.18273 10.5009 3.84234 10.4596 3.46247C10.4182 3.08259 10.078 2.80752 9.69814 2.84886C9.47977 2.87114 9.28384 2.99838 9.17565 3.18755L7.48081 2.84886C7.36571 2.82304 7.25045 2.89526 7.22464 3.01221C7.22464 3.0139 7.22464 3.0139 7.22464 3.01559L6.71414 5.41518C5.75154 5.4307 4.81475 5.72636 4.0172 6.26606C3.6115 5.88449 2.97207 5.90339 2.59051 6.31077C2.20894 6.71647 2.22784 7.3559 2.63523 7.73746C2.71437 7.81138 2.80534 7.875 2.90676 7.91972C2.89985 8.02114 2.89985 8.12257 2.90676 8.22399C2.90676 9.77269 4.71164 11.0326 6.93758 11.0326C9.16351 11.0326 10.9684 9.77438 10.9684 8.22399C10.9753 8.12257 10.9753 8.02114 10.9684 7.91972C11.3157 7.74607 11.5341 7.38848 11.5271 6.99999ZM4.61191 7.69275C4.61191 7.31118 4.92309 6.99999 5.30466 6.99999C5.68623 6.99999 5.99741 7.31118 5.99741 7.69275C5.99741 8.07431 5.68623 8.3855 5.30466 8.3855C4.9214 8.38196 4.61191 8.07431 4.61191 7.69275ZM8.62904 9.62133V9.59382C8.13745 9.9634 7.53582 10.1524 6.92037 10.1268C6.30491 10.1526 5.70344 9.9634 5.21169 9.59382C5.14638 9.51468 5.15836 9.3962 5.2375 9.33089C5.3062 9.27418 5.40424 9.27418 5.47477 9.33089C5.89076 9.63516 6.39788 9.78991 6.91345 9.76578C7.42917 9.79329 7.93798 9.64545 8.35904 9.34472C8.43465 9.2708 8.55835 9.27249 8.63242 9.3481C8.70634 9.42371 8.70465 9.54741 8.62904 9.62133ZM8.53453 8.43529C8.52255 8.43529 8.51225 8.43529 8.50011 8.43529L8.50534 8.40947C8.12377 8.40947 7.81258 8.09829 7.81258 7.71672C7.81258 7.33515 8.12377 7.02397 8.50534 7.02397C8.8869 7.02397 9.19809 7.33515 9.19809 7.71672C9.21346 8.09844 8.9161 8.41977 8.53453 8.43529Z" fill="white"/>
</g>
</svg>
