<svg width="14" height="14" viewBox="0 0 14 14" fill="none" xmlns="http://www.w3.org/2000/svg">
<g id="logo-instagram">
<path id="Vector" d="M7.00357 0.106079C4.12487 0.106079 3.28296 0.109049 3.11931 0.122625C2.52855 0.171731 2.16094 0.264746 1.76046 0.46414C1.45182 0.617397 1.20841 0.795049 0.968187 1.04408C0.530687 1.49823 0.265535 2.05696 0.16955 2.72111C0.122884 3.04353 0.109308 3.10929 0.10655 4.7562C0.10549 5.30517 0.10655 6.02765 0.10655 6.99673C0.10655 9.87309 0.109732 10.7142 0.12352 10.8775C0.171247 11.4523 0.261399 11.814 0.452308 12.2096C0.817157 12.9669 1.51397 13.5354 2.33488 13.7475C2.61913 13.8207 2.93307 13.861 3.3361 13.8801C3.50685 13.8875 5.24731 13.8928 6.98882 13.8928C8.73034 13.8928 10.4719 13.8907 10.6384 13.8822C11.105 13.8602 11.376 13.8239 11.6756 13.7464C12.5019 13.5332 13.1859 12.9732 13.5582 12.2054C13.7454 11.8193 13.8403 11.4439 13.8833 10.899C13.8926 10.7802 13.8966 8.88631 13.8966 6.99493C13.8966 5.10323 13.8923 3.21281 13.883 3.09402C13.8395 2.54038 13.7446 2.16811 13.5513 1.77462C13.3928 1.45252 13.2167 1.21197 12.9611 0.966018C12.5049 0.530322 11.9471 0.26517 11.2823 0.169291C10.9602 0.122731 10.896 0.108943 9.24781 0.106079H7.00357Z" fill="url(#paint0_radial_398_12314)"/>
<path id="Vector_2" d="M7.00357 0.106079C4.12487 0.106079 3.28296 0.109049 3.11931 0.122625C2.52855 0.171731 2.16094 0.264746 1.76046 0.46414C1.45182 0.617397 1.20841 0.795049 0.968187 1.04408C0.530687 1.49823 0.265535 2.05696 0.16955 2.72111C0.122884 3.04353 0.109308 3.10929 0.10655 4.7562C0.10549 5.30517 0.10655 6.02765 0.10655 6.99673C0.10655 9.87309 0.109732 10.7142 0.12352 10.8775C0.171247 11.4523 0.261399 11.814 0.452308 12.2096C0.817157 12.9669 1.51397 13.5354 2.33488 13.7475C2.61913 13.8207 2.93307 13.861 3.3361 13.8801C3.50685 13.8875 5.24731 13.8928 6.98882 13.8928C8.73034 13.8928 10.4719 13.8907 10.6384 13.8822C11.105 13.8602 11.376 13.8239 11.6756 13.7464C12.5019 13.5332 13.1859 12.9732 13.5582 12.2054C13.7454 11.8193 13.8403 11.4439 13.8833 10.899C13.8926 10.7802 13.8966 8.88631 13.8966 6.99493C13.8966 5.10323 13.8923 3.21281 13.883 3.09402C13.8395 2.54038 13.7446 2.16811 13.5513 1.77462C13.3928 1.45252 13.2167 1.21197 12.9611 0.966018C12.5049 0.530322 11.9471 0.26517 11.2823 0.169291C10.9602 0.122731 10.896 0.108943 9.24781 0.106079H7.00357Z" fill="url(#paint1_radial_398_12314)"/>
<path id="Vector_3" d="M7.00039 1.90906C5.61778 1.90906 5.44427 1.9151 4.90124 1.93982C4.35927 1.96463 3.98933 2.05044 3.66563 2.17633C3.3308 2.30636 3.04677 2.4803 2.7638 2.76338C2.48062 3.04635 2.30668 3.33038 2.17622 3.6651C2.05001 3.98891 1.9641 4.35895 1.93971 4.90071C1.91542 5.44374 1.90906 5.61736 1.90906 6.99997C1.90906 8.38257 1.91521 8.55556 1.93982 9.09859C1.96474 9.64056 2.05054 10.0105 2.17633 10.3342C2.30647 10.669 2.48041 10.9531 2.76348 11.236C3.04635 11.5192 3.33038 11.6936 3.665 11.8236C3.98891 11.9495 4.35895 12.0353 4.90082 12.0601C5.44385 12.0848 5.61725 12.0909 6.99975 12.0909C8.38247 12.0909 8.55545 12.0848 9.09848 12.0601C9.64045 12.0353 10.0108 11.9495 10.3347 11.8236C10.6695 11.6936 10.9531 11.5192 11.2359 11.236C11.5191 10.9531 11.693 10.669 11.8235 10.3343C11.9486 10.0105 12.0346 9.64045 12.06 9.09869C12.0844 8.55566 12.0908 8.38257 12.0908 6.99997C12.0908 5.61736 12.0844 5.44385 12.06 4.90082C12.0346 4.35885 11.9486 3.98891 11.8235 3.66521C11.693 3.33038 11.5191 3.04635 11.2359 2.76338C10.9527 2.48019 10.6696 2.30625 10.3344 2.17633C10.0099 2.05044 9.63971 1.96463 9.09774 1.93982C8.55471 1.9151 8.38183 1.90906 6.9988 1.90906H7.00039ZM6.54369 2.82648C6.67924 2.82627 6.83048 2.82648 7.00039 2.82648C8.35966 2.82648 8.52077 2.83136 9.05754 2.85575C9.55391 2.87845 9.8233 2.96139 10.0028 3.03107C10.2403 3.12335 10.4097 3.23365 10.5878 3.41183C10.766 3.59001 10.8763 3.75971 10.9688 3.99728C11.0384 4.17653 11.1215 4.44592 11.1441 4.94228C11.1685 5.47895 11.1738 5.64016 11.1738 6.9988C11.1738 8.35744 11.1685 8.51865 11.1441 9.05531C11.1214 9.55168 11.0384 9.82107 10.9688 10.0003C10.8765 10.2379 10.766 10.4071 10.5878 10.5851C10.4096 10.7633 10.2404 10.8736 10.0028 10.9659C9.82351 11.0359 9.55391 11.1186 9.05754 11.1413C8.52088 11.1657 8.35966 11.171 7.00039 11.171C5.64101 11.171 5.47991 11.1657 4.94324 11.1413C4.44688 11.1184 4.17748 11.0355 3.99792 10.9658C3.76035 10.8735 3.59065 10.7632 3.41247 10.585C3.23428 10.4068 3.12398 10.2376 3.0315 9.99989C2.96182 9.82065 2.87877 9.55125 2.85618 9.05489C2.83178 8.51822 2.82691 8.35701 2.82691 6.99753C2.82691 5.63804 2.83178 5.47768 2.85618 4.94101C2.87888 4.44465 2.96182 4.17525 3.0315 3.9958C3.12377 3.75822 3.23428 3.58853 3.41247 3.41035C3.59065 3.23216 3.76035 3.12186 3.99792 3.02938C4.17738 2.95938 4.44688 2.87665 4.94324 2.85385C5.41288 2.83263 5.59488 2.82627 6.54369 2.82521V2.82648ZM9.71788 3.67178C9.3806 3.67178 9.10697 3.9451 9.10697 4.28248C9.10697 4.61975 9.3806 4.89339 9.71788 4.89339C10.0551 4.89339 10.3288 4.61975 10.3288 4.28248C10.3288 3.94521 10.0551 3.67157 9.71788 3.67157V3.67178ZM7.00039 4.38557C5.55659 4.38557 4.386 5.55616 4.386 6.99997C4.386 8.44377 5.55659 9.61383 7.00039 9.61383C8.44419 9.61383 9.61436 8.44377 9.61436 6.99997C9.61436 5.55616 8.44419 4.38557 7.00039 4.38557ZM7.00039 5.303C7.93754 5.303 8.69736 6.06271 8.69736 6.99997C8.69736 7.93712 7.93754 8.69694 7.00039 8.69694C6.06313 8.69694 5.30342 7.93712 5.30342 6.99997C5.30342 6.06271 6.06313 5.303 7.00039 5.303Z" fill="white"/>
</g>
<defs>
<radialGradient id="paint0_radial_398_12314" cx="0" cy="0" r="1" gradientUnits="userSpaceOnUse" gradientTransform="translate(3.76919 14.9547) rotate(-90) scale(13.6637 12.7117)">
<stop stop-color="#FFDD55"/>
<stop offset="0.1" stop-color="#FFDD55"/>
<stop offset="0.5" stop-color="#FF543E"/>
<stop offset="1" stop-color="#C837AB"/>
</radialGradient>
<radialGradient id="paint1_radial_398_12314" cx="0" cy="0" r="1" gradientUnits="userSpaceOnUse" gradientTransform="translate(-2.2039 1.09925) rotate(78.6776) scale(6.10777 25.1828)">
<stop stop-color="#3771C8"/>
<stop offset="0.128" stop-color="#3771C8"/>
<stop offset="1" stop-color="#6600FF" stop-opacity="0"/>
</radialGradient>
</defs>
</svg>
